<?xml version="1.0" encoding="utf-8" standalone="no"?>
<!DOCTYPE svg PUBLIC "-//W3C//DTD SVG 1.1//EN"
  "http://www.w3.org/Graphics/SVG/1.1/DTD/svg11.dtd">
<!-- Created with matplotlib (http://matplotlib.org/) -->
<svg height="332.322656pt" version="1.1" viewBox="0 0 683.2125 332.322656" width="683.2125pt" xmlns="http://www.w3.org/2000/svg" xmlns:xlink="http://www.w3.org/1999/xlink">
 <defs>
  <style type="text/css">
*{stroke-linecap:butt;stroke-linejoin:round;}
  </style>
 </defs>
 <g id="figure_1">
  <g id="patch_1">
   <path d="M 0 332.322656 
L 683.2125 332.322656 
L 683.2125 0 
L 0 0 
z
" style="fill:#ffffff;"/>
  </g>
  <g id="axes_1">
   <g id="patch_2">
    <path d="M 43.78125 137.244141 
L 169.560547 137.244141 
L 169.560547 22.318125 
L 43.78125 22.318125 
z
" style="fill:#ffffff;"/>
   </g>
   <g id="patch_3">
    <path clip-path="url(#p63df22bb2b)" d="M 49.498491 137.244141 
L 60.932972 137.244141 
L 60.932972 27.790792 
L 49.498491 27.790792 
z
" style="fill:#1f77b4;"/>
   </g>
   <g id="patch_4">
    <path clip-path="url(#p63df22bb2b)" d="M 60.932972 137.244141 
L 72.367454 137.244141 
L 72.367454 131.872197 
L 60.932972 131.872197 
z
" style="fill:#1f77b4;"/>
   </g>
   <g id="patch_5">
    <path clip-path="url(#p63df22bb2b)" d="M 72.367454 137.244141 
L 83.801935 137.244141 
L 83.801935 136.572648 
L 72.367454 136.572648 
z
" style="fill:#1f77b4;"/>
   </g>
   <g id="patch_6">
    <path clip-path="url(#p63df22bb2b)" d="M 83.801935 137.244141 
L 95.236417 137.244141 
L 95.236417 136.572648 
L 83.801935 136.572648 
z
" style="fill:#1f77b4;"/>
   </g>
   <g id="patch_7">
    <path clip-path="url(#p63df22bb2b)" d="M 95.236417 137.244141 
L 106.670898 137.244141 
L 106.670898 135.901155 
L 95.236417 135.901155 
z
" style="fill:#1f77b4;"/>
   </g>
   <g id="patch_8">
    <path clip-path="url(#p63df22bb2b)" d="M 106.670898 137.244141 
L 118.10538 137.244141 
L 118.10538 134.558169 
L 106.670898 134.558169 
z
" style="fill:#1f77b4;"/>
   </g>
   <g id="patch_9">
    <path clip-path="url(#p63df22bb2b)" d="M 118.10538 137.244141 
L 129.539862 137.244141 
L 129.539862 135.901155 
L 118.10538 135.901155 
z
" style="fill:#1f77b4;"/>
   </g>
   <g id="patch_10">
    <path clip-path="url(#p63df22bb2b)" d="M 129.539862 137.244141 
L 140.974343 137.244141 
L 140.974343 137.244141 
L 129.539862 137.244141 
z
" style="fill:#1f77b4;"/>
   </g>
   <g id="patch_11">
    <path clip-path="url(#p63df22bb2b)" d="M 140.974343 137.244141 
L 152.408825 137.244141 
L 152.408825 137.244141 
L 140.974343 137.244141 
z
" style="fill:#1f77b4;"/>
   </g>
   <g id="patch_12">
    <path clip-path="url(#p63df22bb2b)" d="M 152.408825 137.244141 
L 163.843306 137.244141 
L 163.843306 125.828761 
L 152.408825 125.828761 
z
" style="fill:#1f77b4;"/>
   </g>
   <g id="matplotlib.axis_1">
    <g id="xtick_1">
     <g id="line2d_1">
      <defs>
       <path d="M 0 0 
L 0 3.5 
" id="m7c35e0efd3" style="stroke:#000000;stroke-width:0.8;"/>
      </defs>
      <g>
       <use style="stroke:#000000;stroke-width:0.8;" x="49.498491" xlink:href="#m7c35e0efd3" y="137.244141"/>
      </g>
     </g>
     <g id="text_1">
      <!-- 0 -->
      <defs>
       <path d="M 31.78125 66.40625 
Q 24.171875 66.40625 20.328125 58.90625 
Q 16.5 51.421875 16.5 36.375 
Q 16.5 21.390625 20.328125 13.890625 
Q 24.171875 6.390625 31.78125 6.390625 
Q 39.453125 6.390625 43.28125 13.890625 
Q 47.125 21.390625 47.125 36.375 
Q 47.125 51.421875 43.28125 58.90625 
Q 39.453125 66.40625 31.78125 66.40625 
z
M 31.78125 74.21875 
Q 44.046875 74.21875 50.515625 64.515625 
Q 56.984375 54.828125 56.984375 36.375 
Q 56.984375 17.96875 50.515625 8.265625 
Q 44.046875 -1.421875 31.78125 -1.421875 
Q 19.53125 -1.421875 13.0625 8.265625 
Q 6.59375 17.96875 6.59375 36.375 
Q 6.59375 54.828125 13.0625 64.515625 
Q 19.53125 74.21875 31.78125 74.21875 
z
" id="DejaVuSans-30"/>
      </defs>
      <g transform="translate(46.317241 151.842578)scale(0.1 -0.1)">
       <use xlink:href="#DejaVuSans-30"/>
      </g>
     </g>
    </g>
    <g id="xtick_2">
     <g id="line2d_2">
      <g>
       <use style="stroke:#000000;stroke-width:0.8;" x="85.231246" xlink:href="#m7c35e0efd3" y="137.244141"/>
      </g>
     </g>
     <g id="text_2">
      <!-- 5 -->
      <defs>
       <path d="M 10.796875 72.90625 
L 49.515625 72.90625 
L 49.515625 64.59375 
L 19.828125 64.59375 
L 19.828125 46.734375 
Q 21.96875 47.46875 24.109375 47.828125 
Q 26.265625 48.1875 28.421875 48.1875 
Q 40.625 48.1875 47.75 41.5 
Q 54.890625 34.8125 54.890625 23.390625 
Q 54.890625 11.625 47.5625 5.09375 
Q 40.234375 -1.421875 26.90625 -1.421875 
Q 22.3125 -1.421875 17.546875 -0.640625 
Q 12.796875 0.140625 7.71875 1.703125 
L 7.71875 11.625 
Q 12.109375 9.234375 16.796875 8.0625 
Q 21.484375 6.890625 26.703125 6.890625 
Q 35.15625 6.890625 40.078125 11.328125 
Q 45.015625 15.765625 45.015625 23.390625 
Q 45.015625 31 40.078125 35.4375 
Q 35.15625 39.890625 26.703125 39.890625 
Q 22.75 39.890625 18.8125 39.015625 
Q 14.890625 38.140625 10.796875 36.28125 
z
" id="DejaVuSans-35"/>
      </defs>
      <g transform="translate(82.049996 151.842578)scale(0.1 -0.1)">
       <use xlink:href="#DejaVuSans-35"/>
      </g>
     </g>
    </g>
    <g id="xtick_3">
     <g id="line2d_3">
      <g>
       <use style="stroke:#000000;stroke-width:0.8;" x="120.964" xlink:href="#m7c35e0efd3" y="137.244141"/>
      </g>
     </g>
     <g id="text_3">
      <!-- 10 -->
      <defs>
       <path d="M 12.40625 8.296875 
L 28.515625 8.296875 
L 28.515625 63.921875 
L 10.984375 60.40625 
L 10.984375 69.390625 
L 28.421875 72.90625 
L 38.28125 72.90625 
L 38.28125 8.296875 
L 54.390625 8.296875 
L 54.390625 0 
L 12.40625 0 
z
" id="DejaVuSans-31"/>
      </defs>
      <g transform="translate(114.6015 151.842578)scale(0.1 -0.1)">
       <use xlink:href="#DejaVuSans-31"/>
       <use x="63.623047" xlink:href="#DejaVuSans-30"/>
      </g>
     </g>
    </g>
    <g id="xtick_4">
     <g id="line2d_4">
      <g>
       <use style="stroke:#000000;stroke-width:0.8;" x="156.696755" xlink:href="#m7c35e0efd3" y="137.244141"/>
      </g>
     </g>
     <g id="text_4">
      <!-- 15 -->
      <g transform="translate(150.334255 151.842578)scale(0.1 -0.1)">
       <use xlink:href="#DejaVuSans-31"/>
       <use x="63.623047" xlink:href="#DejaVuSans-35"/>
      </g>
     </g>
    </g>
   </g>
   <g id="matplotlib.axis_2">
    <g id="ytick_1">
     <g id="line2d_5">
      <defs>
       <path d="M 0 0 
L -3.5 0 
" id="mbd4306bb94" style="stroke:#000000;stroke-width:0.8;"/>
      </defs>
      <g>
       <use style="stroke:#000000;stroke-width:0.8;" x="43.78125" xlink:href="#mbd4306bb94" y="137.244141"/>
      </g>
     </g>
     <g id="text_5">
      <!-- 0 -->
      <g transform="translate(30.41875 141.043359)scale(0.1 -0.1)">
       <use xlink:href="#DejaVuSans-30"/>
      </g>
     </g>
    </g>
    <g id="ytick_2">
     <g id="line2d_6">
      <g>
       <use style="stroke:#000000;stroke-width:0.8;" x="43.78125" xlink:href="#mbd4306bb94" y="103.669494"/>
      </g>
     </g>
     <g id="text_6">
      <!-- 50 -->
      <g transform="translate(24.05625 107.468713)scale(0.1 -0.1)">
       <use xlink:href="#DejaVuSans-35"/>
       <use x="63.623047" xlink:href="#DejaVuSans-30"/>
      </g>
     </g>
    </g>
    <g id="ytick_3">
     <g id="line2d_7">
      <g>
       <use style="stroke:#000000;stroke-width:0.8;" x="43.78125" xlink:href="#mbd4306bb94" y="70.094847"/>
      </g>
     </g>
     <g id="text_7">
      <!-- 100 -->
      <g transform="translate(17.69375 73.894066)scale(0.1 -0.1)">
       <use xlink:href="#DejaVuSans-31"/>
       <use x="63.623047" xlink:href="#DejaVuSans-30"/>
       <use x="127.246094" xlink:href="#DejaVuSans-30"/>
      </g>
     </g>
    </g>
    <g id="ytick_4">
     <g id="line2d_8">
      <g>
       <use style="stroke:#000000;stroke-width:0.8;" x="43.78125" xlink:href="#mbd4306bb94" y="36.520201"/>
      </g>
     </g>
     <g id="text_8">
      <!-- 150 -->
      <g transform="translate(17.69375 40.319419)scale(0.1 -0.1)">
       <use xlink:href="#DejaVuSans-31"/>
       <use x="63.623047" xlink:href="#DejaVuSans-35"/>
       <use x="127.246094" xlink:href="#DejaVuSans-30"/>
      </g>
     </g>
    </g>
   </g>
   <g id="patch_13">
    <path d="M 43.78125 137.244141 
L 43.78125 22.318125 
" style="fill:none;stroke:#000000;stroke-linecap:square;stroke-linejoin:miter;stroke-width:0.8;"/>
   </g>
   <g id="patch_14">
    <path d="M 169.560547 137.244141 
L 169.560547 22.318125 
" style="fill:none;stroke:#000000;stroke-linecap:square;stroke-linejoin:miter;stroke-width:0.8;"/>
   </g>
   <g id="patch_15">
    <path d="M 43.78125 137.244141 
L 169.560547 137.244141 
" style="fill:none;stroke:#000000;stroke-linecap:square;stroke-linejoin:miter;stroke-width:0.8;"/>
   </g>
   <g id="patch_16">
    <path d="M 43.78125 22.318125 
L 169.560547 22.318125 
" style="fill:none;stroke:#000000;stroke-linecap:square;stroke-linejoin:miter;stroke-width:0.8;"/>
   </g>
   <g id="text_9">
    <!-- Epsilon: 20 -->
    <defs>
     <path d="M 9.8125 72.90625 
L 55.90625 72.90625 
L 55.90625 64.59375 
L 19.671875 64.59375 
L 19.671875 43.015625 
L 54.390625 43.015625 
L 54.390625 34.71875 
L 19.671875 34.71875 
L 19.671875 8.296875 
L 56.78125 8.296875 
L 56.78125 0 
L 9.8125 0 
z
" id="DejaVuSans-45"/>
     <path d="M 18.109375 8.203125 
L 18.109375 -20.796875 
L 9.078125 -20.796875 
L 9.078125 54.6875 
L 18.109375 54.6875 
L 18.109375 46.390625 
Q 20.953125 51.265625 25.265625 53.625 
Q 29.59375 56 35.59375 56 
Q 45.5625 56 51.78125 48.09375 
Q 58.015625 40.1875 58.015625 27.296875 
Q 58.015625 14.40625 51.78125 6.484375 
Q 45.5625 -1.421875 35.59375 -1.421875 
Q 29.59375 -1.421875 25.265625 0.953125 
Q 20.953125 3.328125 18.109375 8.203125 
z
M 48.6875 27.296875 
Q 48.6875 37.203125 44.609375 42.84375 
Q 40.53125 48.484375 33.40625 48.484375 
Q 26.265625 48.484375 22.1875 42.84375 
Q 18.109375 37.203125 18.109375 27.296875 
Q 18.109375 17.390625 22.1875 11.75 
Q 26.265625 6.109375 33.40625 6.109375 
Q 40.53125 6.109375 44.609375 11.75 
Q 48.6875 17.390625 48.6875 27.296875 
z
" id="DejaVuSans-70"/>
     <path d="M 44.28125 53.078125 
L 44.28125 44.578125 
Q 40.484375 46.53125 36.375 47.5 
Q 32.28125 48.484375 27.875 48.484375 
Q 21.1875 48.484375 17.84375 46.4375 
Q 14.5 44.390625 14.5 40.28125 
Q 14.5 37.15625 16.890625 35.375 
Q 19.28125 33.59375 26.515625 31.984375 
L 29.59375 31.296875 
Q 39.15625 29.25 43.1875 25.515625 
Q 47.21875 21.78125 47.21875 15.09375 
Q 47.21875 7.46875 41.1875 3.015625 
Q 35.15625 -1.421875 24.609375 -1.421875 
Q 20.21875 -1.421875 15.453125 -0.5625 
Q 10.6875 0.296875 5.421875 2 
L 5.421875 11.28125 
Q 10.40625 8.6875 15.234375 7.390625 
Q 20.0625 6.109375 24.8125 6.109375 
Q 31.15625 6.109375 34.5625 8.28125 
Q 37.984375 10.453125 37.984375 14.40625 
Q 37.984375 18.0625 35.515625 20.015625 
Q 33.0625 21.96875 24.703125 23.78125 
L 21.578125 24.515625 
Q 13.234375 26.265625 9.515625 29.90625 
Q 5.8125 33.546875 5.8125 39.890625 
Q 5.8125 47.609375 11.28125 51.796875 
Q 16.75 56 26.8125 56 
Q 31.78125 56 36.171875 55.265625 
Q 40.578125 54.546875 44.28125 53.078125 
z
" id="DejaVuSans-73"/>
     <path d="M 9.421875 54.6875 
L 18.40625 54.6875 
L 18.40625 0 
L 9.421875 0 
z
M 9.421875 75.984375 
L 18.40625 75.984375 
L 18.40625 64.59375 
L 9.421875 64.59375 
z
" id="DejaVuSans-69"/>
     <path d="M 9.421875 75.984375 
L 18.40625 75.984375 
L 18.40625 0 
L 9.421875 0 
z
" id="DejaVuSans-6c"/>
     <path d="M 30.609375 48.390625 
Q 23.390625 48.390625 19.1875 42.75 
Q 14.984375 37.109375 14.984375 27.296875 
Q 14.984375 17.484375 19.15625 11.84375 
Q 23.34375 6.203125 30.609375 6.203125 
Q 37.796875 6.203125 41.984375 11.859375 
Q 46.1875 17.53125 46.1875 27.296875 
Q 46.1875 37.015625 41.984375 42.703125 
Q 37.796875 48.390625 30.609375 48.390625 
z
M 30.609375 56 
Q 42.328125 56 49.015625 48.375 
Q 55.71875 40.765625 55.71875 27.296875 
Q 55.71875 13.875 49.015625 6.21875 
Q 42.328125 -1.421875 30.609375 -1.421875 
Q 18.84375 -1.421875 12.171875 6.21875 
Q 5.515625 13.875 5.515625 27.296875 
Q 5.515625 40.765625 12.171875 48.375 
Q 18.84375 56 30.609375 56 
z
" id="DejaVuSans-6f"/>
     <path d="M 54.890625 33.015625 
L 54.890625 0 
L 45.90625 0 
L 45.90625 32.71875 
Q 45.90625 40.484375 42.875 44.328125 
Q 39.84375 48.1875 33.796875 48.1875 
Q 26.515625 48.1875 22.3125 43.546875 
Q 18.109375 38.921875 18.109375 30.90625 
L 18.109375 0 
L 9.078125 0 
L 9.078125 54.6875 
L 18.109375 54.6875 
L 18.109375 46.1875 
Q 21.34375 51.125 25.703125 53.5625 
Q 30.078125 56 35.796875 56 
Q 45.21875 56 50.046875 50.171875 
Q 54.890625 44.34375 54.890625 33.015625 
z
" id="DejaVuSans-6e"/>
     <path d="M 11.71875 12.40625 
L 22.015625 12.40625 
L 22.015625 0 
L 11.71875 0 
z
M 11.71875 51.703125 
L 22.015625 51.703125 
L 22.015625 39.3125 
L 11.71875 39.3125 
z
" id="DejaVuSans-3a"/>
     <path id="DejaVuSans-20"/>
     <path d="M 19.1875 8.296875 
L 53.609375 8.296875 
L 53.609375 0 
L 7.328125 0 
L 7.328125 8.296875 
Q 12.9375 14.109375 22.625 23.890625 
Q 32.328125 33.6875 34.8125 36.53125 
Q 39.546875 41.84375 41.421875 45.53125 
Q 43.3125 49.21875 43.3125 52.78125 
Q 43.3125 58.59375 39.234375 62.25 
Q 35.15625 65.921875 28.609375 65.921875 
Q 23.96875 65.921875 18.8125 64.3125 
Q 13.671875 62.703125 7.8125 59.421875 
L 7.8125 69.390625 
Q 13.765625 71.78125 18.9375 73 
Q 24.125 74.21875 28.421875 74.21875 
Q 39.75 74.21875 46.484375 68.546875 
Q 53.21875 62.890625 53.21875 53.421875 
Q 53.21875 48.921875 51.53125 44.890625 
Q 49.859375 40.875 45.40625 35.40625 
Q 44.1875 33.984375 37.640625 27.21875 
Q 31.109375 20.453125 19.1875 8.296875 
z
" id="DejaVuSans-32"/>
    </defs>
    <g transform="translate(73.574336 16.318125)scale(0.12 -0.12)">
     <use xlink:href="#DejaVuSans-45"/>
     <use x="63.183594" xlink:href="#DejaVuSans-70"/>
     <use x="126.660156" xlink:href="#DejaVuSans-73"/>
     <use x="178.759766" xlink:href="#DejaVuSans-69"/>
     <use x="206.542969" xlink:href="#DejaVuSans-6c"/>
     <use x="234.326172" xlink:href="#DejaVuSans-6f"/>
     <use x="295.507812" xlink:href="#DejaVuSans-6e"/>
     <use x="358.886719" xlink:href="#DejaVuSans-3a"/>
     <use x="392.578125" xlink:href="#DejaVuSans-20"/>
     <use x="424.365234" xlink:href="#DejaVuSans-32"/>
     <use x="487.988281" xlink:href="#DejaVuSans-30"/>
    </g>
   </g>
  </g>
  <g id="axes_2">
   <g id="patch_17">
    <path d="M 209.948047 137.244141 
L 335.727344 137.244141 
L 335.727344 22.318125 
L 209.948047 22.318125 
z
" style="fill:#ffffff;"/>
   </g>
   <g id="patch_18">
    <path clip-path="url(#pb2efb4ddc8)" d="M 215.665288 137.244141 
L 227.099769 137.244141 
L 227.099769 27.790792 
L 215.665288 27.790792 
z
" style="fill:#1f77b4;"/>
   </g>
   <g id="patch_19">
    <path clip-path="url(#pb2efb4ddc8)" d="M 227.099769 137.244141 
L 238.534251 137.244141 
L 238.534251 131.960186 
L 227.099769 131.960186 
z
" style="fill:#1f77b4;"/>
   </g>
   <g id="patch_20">
    <path clip-path="url(#pb2efb4ddc8)" d="M 238.534251 137.244141 
L 249.968732 137.244141 
L 249.968732 131.205335 
L 238.534251 131.205335 
z
" style="fill:#1f77b4;"/>
   </g>
   <g id="patch_21">
    <path clip-path="url(#pb2efb4ddc8)" d="M 249.968732 137.244141 
L 261.403214 137.244141 
L 261.403214 130.450485 
L 249.968732 130.450485 
z
" style="fill:#1f77b4;"/>
   </g>
   <g id="patch_22">
    <path clip-path="url(#pb2efb4ddc8)" d="M 261.403214 137.244141 
L 272.837695 137.244141 
L 272.837695 128.185932 
L 261.403214 128.185932 
z
" style="fill:#1f77b4;"/>
   </g>
   <g id="patch_23">
    <path clip-path="url(#pb2efb4ddc8)" d="M 272.837695 137.244141 
L 284.272177 137.244141 
L 284.272177 130.450485 
L 272.837695 130.450485 
z
" style="fill:#1f77b4;"/>
   </g>
   <g id="patch_24">
    <path clip-path="url(#pb2efb4ddc8)" d="M 284.272177 137.244141 
L 295.706658 137.244141 
L 295.706658 136.48929 
L 284.272177 136.48929 
z
" style="fill:#1f77b4;"/>
   </g>
   <g id="patch_25">
    <path clip-path="url(#pb2efb4ddc8)" d="M 295.706658 137.244141 
L 307.14114 137.244141 
L 307.14114 133.469887 
L 295.706658 133.469887 
z
" style="fill:#1f77b4;"/>
   </g>
   <g id="patch_26">
    <path clip-path="url(#pb2efb4ddc8)" d="M 307.14114 137.244141 
L 318.575621 137.244141 
L 318.575621 137.244141 
L 307.14114 137.244141 
z
" style="fill:#1f77b4;"/>
   </g>
   <g id="patch_27">
    <path clip-path="url(#pb2efb4ddc8)" d="M 318.575621 137.244141 
L 330.010103 137.244141 
L 330.010103 135.734439 
L 318.575621 135.734439 
z
" style="fill:#1f77b4;"/>
   </g>
   <g id="matplotlib.axis_3">
    <g id="xtick_5">
     <g id="line2d_9">
      <g>
       <use style="stroke:#000000;stroke-width:0.8;" x="215.665288" xlink:href="#m7c35e0efd3" y="137.244141"/>
      </g>
     </g>
     <g id="text_10">
      <!-- 0 -->
      <g transform="translate(212.484038 151.842578)scale(0.1 -0.1)">
       <use xlink:href="#DejaVuSans-30"/>
      </g>
     </g>
    </g>
    <g id="xtick_6">
     <g id="line2d_10">
      <g>
       <use style="stroke:#000000;stroke-width:0.8;" x="270.1152" xlink:href="#m7c35e0efd3" y="137.244141"/>
      </g>
     </g>
     <g id="text_11">
      <!-- 20 -->
      <g transform="translate(263.7527 151.842578)scale(0.1 -0.1)">
       <use xlink:href="#DejaVuSans-32"/>
       <use x="63.623047" xlink:href="#DejaVuSans-30"/>
      </g>
     </g>
    </g>
    <g id="xtick_7">
     <g id="line2d_11">
      <g>
       <use style="stroke:#000000;stroke-width:0.8;" x="324.565112" xlink:href="#m7c35e0efd3" y="137.244141"/>
      </g>
     </g>
     <g id="text_12">
      <!-- 40 -->
      <defs>
       <path d="M 37.796875 64.3125 
L 12.890625 25.390625 
L 37.796875 25.390625 
z
M 35.203125 72.90625 
L 47.609375 72.90625 
L 47.609375 25.390625 
L 58.015625 25.390625 
L 58.015625 17.1875 
L 47.609375 17.1875 
L 47.609375 0 
L 37.796875 0 
L 37.796875 17.1875 
L 4.890625 17.1875 
L 4.890625 26.703125 
z
" id="DejaVuSans-34"/>
      </defs>
      <g transform="translate(318.202612 151.842578)scale(0.1 -0.1)">
       <use xlink:href="#DejaVuSans-34"/>
       <use x="63.623047" xlink:href="#DejaVuSans-30"/>
      </g>
     </g>
    </g>
   </g>
   <g id="matplotlib.axis_4">
    <g id="ytick_5">
     <g id="line2d_12">
      <g>
       <use style="stroke:#000000;stroke-width:0.8;" x="209.948047" xlink:href="#mbd4306bb94" y="137.244141"/>
      </g>
     </g>
     <g id="text_13">
      <!-- 0 -->
      <g transform="translate(196.585547 141.043359)scale(0.1 -0.1)">
       <use xlink:href="#DejaVuSans-30"/>
      </g>
     </g>
    </g>
    <g id="ytick_6">
     <g id="line2d_13">
      <g>
       <use style="stroke:#000000;stroke-width:0.8;" x="209.948047" xlink:href="#mbd4306bb94" y="99.501607"/>
      </g>
     </g>
     <g id="text_14">
      <!-- 50 -->
      <g transform="translate(190.223047 103.300826)scale(0.1 -0.1)">
       <use xlink:href="#DejaVuSans-35"/>
       <use x="63.623047" xlink:href="#DejaVuSans-30"/>
      </g>
     </g>
    </g>
    <g id="ytick_7">
     <g id="line2d_14">
      <g>
       <use style="stroke:#000000;stroke-width:0.8;" x="209.948047" xlink:href="#mbd4306bb94" y="61.759073"/>
      </g>
     </g>
     <g id="text_15">
      <!-- 100 -->
      <g transform="translate(183.860547 65.558292)scale(0.1 -0.1)">
       <use xlink:href="#DejaVuSans-31"/>
       <use x="63.623047" xlink:href="#DejaVuSans-30"/>
       <use x="127.246094" xlink:href="#DejaVuSans-30"/>
      </g>
     </g>
    </g>
    <g id="ytick_8">
     <g id="line2d_15">
      <g>
       <use style="stroke:#000000;stroke-width:0.8;" x="209.948047" xlink:href="#mbd4306bb94" y="24.016539"/>
      </g>
     </g>
     <g id="text_16">
      <!-- 150 -->
      <g transform="translate(183.860547 27.815758)scale(0.1 -0.1)">
       <use xlink:href="#DejaVuSans-31"/>
       <use x="63.623047" xlink:href="#DejaVuSans-35"/>
       <use x="127.246094" xlink:href="#DejaVuSans-30"/>
      </g>
     </g>
    </g>
   </g>
   <g id="patch_28">
    <path d="M 209.948047 137.244141 
L 209.948047 22.318125 
" style="fill:none;stroke:#000000;stroke-linecap:square;stroke-linejoin:miter;stroke-width:0.8;"/>
   </g>
   <g id="patch_29">
    <path d="M 335.727344 137.244141 
L 335.727344 22.318125 
" style="fill:none;stroke:#000000;stroke-linecap:square;stroke-linejoin:miter;stroke-width:0.8;"/>
   </g>
   <g id="patch_30">
    <path d="M 209.948047 137.244141 
L 335.727344 137.244141 
" style="fill:none;stroke:#000000;stroke-linecap:square;stroke-linejoin:miter;stroke-width:0.8;"/>
   </g>
   <g id="patch_31">
    <path d="M 209.948047 22.318125 
L 335.727344 22.318125 
" style="fill:none;stroke:#000000;stroke-linecap:square;stroke-linejoin:miter;stroke-width:0.8;"/>
   </g>
   <g id="text_17">
    <!-- Epsilon: 25 -->
    <g transform="translate(239.741133 16.318125)scale(0.12 -0.12)">
     <use xlink:href="#DejaVuSans-45"/>
     <use x="63.183594" xlink:href="#DejaVuSans-70"/>
     <use x="126.660156" xlink:href="#DejaVuSans-73"/>
     <use x="178.759766" xlink:href="#DejaVuSans-69"/>
     <use x="206.542969" xlink:href="#DejaVuSans-6c"/>
     <use x="234.326172" xlink:href="#DejaVuSans-6f"/>
     <use x="295.507812" xlink:href="#DejaVuSans-6e"/>
     <use x="358.886719" xlink:href="#DejaVuSans-3a"/>
     <use x="392.578125" xlink:href="#DejaVuSans-20"/>
     <use x="424.365234" xlink:href="#DejaVuSans-32"/>
     <use x="487.988281" xlink:href="#DejaVuSans-35"/>
    </g>
   </g>
  </g>
  <g id="axes_3">
   <g id="patch_32">
    <path d="M 376.114844 137.244141 
L 501.894141 137.244141 
L 501.894141 22.318125 
L 376.114844 22.318125 
z
" style="fill:#ffffff;"/>
   </g>
   <g id="patch_33">
    <path clip-path="url(#p0081a75dd5)" d="M 381.832085 137.244141 
L 393.266566 137.244141 
L 393.266566 27.790792 
L 381.832085 27.790792 
z
" style="fill:#1f77b4;"/>
   </g>
   <g id="patch_34">
    <path clip-path="url(#p0081a75dd5)" d="M 393.266566 137.244141 
L 404.701048 137.244141 
L 404.701048 130.751145 
L 393.266566 130.751145 
z
" style="fill:#1f77b4;"/>
   </g>
   <g id="patch_35">
    <path clip-path="url(#p0081a75dd5)" d="M 404.701048 137.244141 
L 416.135529 137.244141 
L 416.135529 131.678716 
L 404.701048 131.678716 
z
" style="fill:#1f77b4;"/>
   </g>
   <g id="patch_36">
    <path clip-path="url(#p0081a75dd5)" d="M 416.135529 137.244141 
L 427.570011 137.244141 
L 427.570011 126.113292 
L 416.135529 126.113292 
z
" style="fill:#1f77b4;"/>
   </g>
   <g id="patch_37">
    <path clip-path="url(#p0081a75dd5)" d="M 427.570011 137.244141 
L 439.004492 137.244141 
L 439.004492 132.606287 
L 427.570011 132.606287 
z
" style="fill:#1f77b4;"/>
   </g>
   <g id="patch_38">
    <path clip-path="url(#p0081a75dd5)" d="M 439.004492 137.244141 
L 450.438974 137.244141 
L 450.438974 124.25815 
L 439.004492 124.25815 
z
" style="fill:#1f77b4;"/>
   </g>
   <g id="patch_39">
    <path clip-path="url(#p0081a75dd5)" d="M 450.438974 137.244141 
L 461.873455 137.244141 
L 461.873455 125.185721 
L 450.438974 125.185721 
z
" style="fill:#1f77b4;"/>
   </g>
   <g id="patch_40">
    <path clip-path="url(#p0081a75dd5)" d="M 461.873455 137.244141 
L 473.307937 137.244141 
L 473.307937 129.823575 
L 461.873455 129.823575 
z
" style="fill:#1f77b4;"/>
   </g>
   <g id="patch_41">
    <path clip-path="url(#p0081a75dd5)" d="M 473.307937 137.244141 
L 484.742418 137.244141 
L 484.742418 132.606287 
L 473.307937 132.606287 
z
" style="fill:#1f77b4;"/>
   </g>
   <g id="patch_42">
    <path clip-path="url(#p0081a75dd5)" d="M 484.742418 137.244141 
L 496.1769 137.244141 
L 496.1769 127.968433 
L 484.742418 127.968433 
z
" style="fill:#1f77b4;"/>
   </g>
   <g id="matplotlib.axis_5">
    <g id="xtick_8">
     <g id="line2d_16">
      <g>
       <use style="stroke:#000000;stroke-width:0.8;" x="381.832085" xlink:href="#m7c35e0efd3" y="137.244141"/>
      </g>
     </g>
     <g id="text_18">
      <!-- 0 -->
      <g transform="translate(378.650835 151.842578)scale(0.1 -0.1)">
       <use xlink:href="#DejaVuSans-30"/>
      </g>
     </g>
    </g>
    <g id="xtick_9">
     <g id="line2d_17">
      <g>
       <use style="stroke:#000000;stroke-width:0.8;" x="416.693309" xlink:href="#m7c35e0efd3" y="137.244141"/>
      </g>
     </g>
     <g id="text_19">
      <!-- 25 -->
      <g transform="translate(410.330809 151.842578)scale(0.1 -0.1)">
       <use xlink:href="#DejaVuSans-32"/>
       <use x="63.623047" xlink:href="#DejaVuSans-35"/>
      </g>
     </g>
    </g>
    <g id="xtick_10">
     <g id="line2d_18">
      <g>
       <use style="stroke:#000000;stroke-width:0.8;" x="451.554533" xlink:href="#m7c35e0efd3" y="137.244141"/>
      </g>
     </g>
     <g id="text_20">
      <!-- 50 -->
      <g transform="translate(445.192033 151.842578)scale(0.1 -0.1)">
       <use xlink:href="#DejaVuSans-35"/>
       <use x="63.623047" xlink:href="#DejaVuSans-30"/>
      </g>
     </g>
    </g>
    <g id="xtick_11">
     <g id="line2d_19">
      <g>
       <use style="stroke:#000000;stroke-width:0.8;" x="486.415757" xlink:href="#m7c35e0efd3" y="137.244141"/>
      </g>
     </g>
     <g id="text_21">
      <!-- 75 -->
      <defs>
       <path d="M 8.203125 72.90625 
L 55.078125 72.90625 
L 55.078125 68.703125 
L 28.609375 0 
L 18.3125 0 
L 43.21875 64.59375 
L 8.203125 64.59375 
z
" id="DejaVuSans-37"/>
      </defs>
      <g transform="translate(480.053257 151.842578)scale(0.1 -0.1)">
       <use xlink:href="#DejaVuSans-37"/>
       <use x="63.623047" xlink:href="#DejaVuSans-35"/>
      </g>
     </g>
    </g>
   </g>
   <g id="matplotlib.axis_6">
    <g id="ytick_9">
     <g id="line2d_20">
      <g>
       <use style="stroke:#000000;stroke-width:0.8;" x="376.114844" xlink:href="#mbd4306bb94" y="137.244141"/>
      </g>
     </g>
     <g id="text_22">
      <!-- 0 -->
      <g transform="translate(362.752344 141.043359)scale(0.1 -0.1)">
       <use xlink:href="#DejaVuSans-30"/>
      </g>
     </g>
    </g>
    <g id="ytick_10">
     <g id="line2d_21">
      <g>
       <use style="stroke:#000000;stroke-width:0.8;" x="376.114844" xlink:href="#mbd4306bb94" y="114.054872"/>
      </g>
     </g>
     <g id="text_23">
      <!-- 25 -->
      <g transform="translate(356.389844 117.854091)scale(0.1 -0.1)">
       <use xlink:href="#DejaVuSans-32"/>
       <use x="63.623047" xlink:href="#DejaVuSans-35"/>
      </g>
     </g>
    </g>
    <g id="ytick_11">
     <g id="line2d_22">
      <g>
       <use style="stroke:#000000;stroke-width:0.8;" x="376.114844" xlink:href="#mbd4306bb94" y="90.865603"/>
      </g>
     </g>
     <g id="text_24">
      <!-- 50 -->
      <g transform="translate(356.389844 94.664822)scale(0.1 -0.1)">
       <use xlink:href="#DejaVuSans-35"/>
       <use x="63.623047" xlink:href="#DejaVuSans-30"/>
      </g>
     </g>
    </g>
    <g id="ytick_12">
     <g id="line2d_23">
      <g>
       <use style="stroke:#000000;stroke-width:0.8;" x="376.114844" xlink:href="#mbd4306bb94" y="67.676335"/>
      </g>
     </g>
     <g id="text_25">
      <!-- 75 -->
      <g transform="translate(356.389844 71.475553)scale(0.1 -0.1)">
       <use xlink:href="#DejaVuSans-37"/>
       <use x="63.623047" xlink:href="#DejaVuSans-35"/>
      </g>
     </g>
    </g>
    <g id="ytick_13">
     <g id="line2d_24">
      <g>
       <use style="stroke:#000000;stroke-width:0.8;" x="376.114844" xlink:href="#mbd4306bb94" y="44.487066"/>
      </g>
     </g>
     <g id="text_26">
      <!-- 100 -->
      <g transform="translate(350.027344 48.286285)scale(0.1 -0.1)">
       <use xlink:href="#DejaVuSans-31"/>
       <use x="63.623047" xlink:href="#DejaVuSans-30"/>
       <use x="127.246094" xlink:href="#DejaVuSans-30"/>
      </g>
     </g>
    </g>
   </g>
   <g id="patch_43">
    <path d="M 376.114844 137.244141 
L 376.114844 22.318125 
" style="fill:none;stroke:#000000;stroke-linecap:square;stroke-linejoin:miter;stroke-width:0.8;"/>
   </g>
   <g id="patch_44">
    <path d="M 501.894141 137.244141 
L 501.894141 22.318125 
" style="fill:none;stroke:#000000;stroke-linecap:square;stroke-linejoin:miter;stroke-width:0.8;"/>
   </g>
   <g id="patch_45">
    <path d="M 376.114844 137.244141 
L 501.894141 137.244141 
" style="fill:none;stroke:#000000;stroke-linecap:square;stroke-linejoin:miter;stroke-width:0.8;"/>
   </g>
   <g id="patch_46">
    <path d="M 376.114844 22.318125 
L 501.894141 22.318125 
" style="fill:none;stroke:#000000;stroke-linecap:square;stroke-linejoin:miter;stroke-width:0.8;"/>
   </g>
   <g id="text_27">
    <!-- Epsilon: 30 -->
    <defs>
     <path d="M 40.578125 39.3125 
Q 47.65625 37.796875 51.625 33 
Q 55.609375 28.21875 55.609375 21.1875 
Q 55.609375 10.40625 48.1875 4.484375 
Q 40.765625 -1.421875 27.09375 -1.421875 
Q 22.515625 -1.421875 17.65625 -0.515625 
Q 12.796875 0.390625 7.625 2.203125 
L 7.625 11.71875 
Q 11.71875 9.328125 16.59375 8.109375 
Q 21.484375 6.890625 26.8125 6.890625 
Q 36.078125 6.890625 40.9375 10.546875 
Q 45.796875 14.203125 45.796875 21.1875 
Q 45.796875 27.640625 41.28125 31.265625 
Q 36.765625 34.90625 28.71875 34.90625 
L 20.21875 34.90625 
L 20.21875 43.015625 
L 29.109375 43.015625 
Q 36.375 43.015625 40.234375 45.921875 
Q 44.09375 48.828125 44.09375 54.296875 
Q 44.09375 59.90625 40.109375 62.90625 
Q 36.140625 65.921875 28.71875 65.921875 
Q 24.65625 65.921875 20.015625 65.03125 
Q 15.375 64.15625 9.8125 62.3125 
L 9.8125 71.09375 
Q 15.4375 72.65625 20.34375 73.4375 
Q 25.25 74.21875 29.59375 74.21875 
Q 40.828125 74.21875 47.359375 69.109375 
Q 53.90625 64.015625 53.90625 55.328125 
Q 53.90625 49.265625 50.4375 45.09375 
Q 46.96875 40.921875 40.578125 39.3125 
z
" id="DejaVuSans-33"/>
    </defs>
    <g transform="translate(405.90793 16.318125)scale(0.12 -0.12)">
     <use xlink:href="#DejaVuSans-45"/>
     <use x="63.183594" xlink:href="#DejaVuSans-70"/>
     <use x="126.660156" xlink:href="#DejaVuSans-73"/>
     <use x="178.759766" xlink:href="#DejaVuSans-69"/>
     <use x="206.542969" xlink:href="#DejaVuSans-6c"/>
     <use x="234.326172" xlink:href="#DejaVuSans-6f"/>
     <use x="295.507812" xlink:href="#DejaVuSans-6e"/>
     <use x="358.886719" xlink:href="#DejaVuSans-3a"/>
     <use x="392.578125" xlink:href="#DejaVuSans-20"/>
     <use x="424.365234" xlink:href="#DejaVuSans-33"/>
     <use x="487.988281" xlink:href="#DejaVuSans-30"/>
    </g>
   </g>
  </g>
  <g id="axes_4">
   <g id="patch_47">
    <path d="M 542.281641 137.244141 
L 668.060937 137.244141 
L 668.060937 22.318125 
L 542.281641 22.318125 
z
" style="fill:#ffffff;"/>
   </g>
   <g id="patch_48">
    <path clip-path="url(#p77449aa10a)" d="M 547.998881 137.244141 
L 559.433363 137.244141 
L 559.433363 27.790792 
L 547.998881 27.790792 
z
" style="fill:#1f77b4;"/>
   </g>
   <g id="patch_49">
    <path clip-path="url(#p77449aa10a)" d="M 559.433363 137.244141 
L 570.867844 137.244141 
L 570.867844 126.298806 
L 559.433363 126.298806 
z
" style="fill:#1f77b4;"/>
   </g>
   <g id="patch_50">
    <path clip-path="url(#p77449aa10a)" d="M 570.867844 137.244141 
L 582.302326 137.244141 
L 582.302326 127.514954 
L 570.867844 127.514954 
z
" style="fill:#1f77b4;"/>
   </g>
   <g id="patch_51">
    <path clip-path="url(#p77449aa10a)" d="M 582.302326 137.244141 
L 593.736808 137.244141 
L 593.736808 131.163399 
L 582.302326 131.163399 
z
" style="fill:#1f77b4;"/>
   </g>
   <g id="patch_52">
    <path clip-path="url(#p77449aa10a)" d="M 593.736808 137.244141 
L 605.171289 137.244141 
L 605.171289 128.731102 
L 593.736808 128.731102 
z
" style="fill:#1f77b4;"/>
   </g>
   <g id="patch_53">
    <path clip-path="url(#p77449aa10a)" d="M 605.171289 137.244141 
L 616.605771 137.244141 
L 616.605771 121.434213 
L 605.171289 121.434213 
z
" style="fill:#1f77b4;"/>
   </g>
   <g id="patch_54">
    <path clip-path="url(#p77449aa10a)" d="M 616.605771 137.244141 
L 628.040252 137.244141 
L 628.040252 101.97584 
L 616.605771 101.97584 
z
" style="fill:#1f77b4;"/>
   </g>
   <g id="patch_55">
    <path clip-path="url(#p77449aa10a)" d="M 628.040252 137.244141 
L 639.474734 137.244141 
L 639.474734 111.705026 
L 628.040252 111.705026 
z
" style="fill:#1f77b4;"/>
   </g>
   <g id="patch_56">
    <path clip-path="url(#p77449aa10a)" d="M 639.474734 137.244141 
L 650.909215 137.244141 
L 650.909215 121.434213 
L 639.474734 121.434213 
z
" style="fill:#1f77b4;"/>
   </g>
   <g id="patch_57">
    <path clip-path="url(#p77449aa10a)" d="M 650.909215 137.244141 
L 662.343697 137.244141 
L 662.343697 133.595696 
L 650.909215 133.595696 
z
" style="fill:#1f77b4;"/>
   </g>
   <g id="matplotlib.axis_7">
    <g id="xtick_12">
     <g id="line2d_25">
      <g>
       <use style="stroke:#000000;stroke-width:0.8;" x="547.998881" xlink:href="#m7c35e0efd3" y="137.244141"/>
      </g>
     </g>
     <g id="text_28">
      <!-- 0 -->
      <g transform="translate(544.817631 151.842578)scale(0.1 -0.1)">
       <use xlink:href="#DejaVuSans-30"/>
      </g>
     </g>
    </g>
    <g id="xtick_13">
     <g id="line2d_26">
      <g>
       <use style="stroke:#000000;stroke-width:0.8;" x="594.861511" xlink:href="#m7c35e0efd3" y="137.244141"/>
      </g>
     </g>
     <g id="text_29">
      <!-- 50 -->
      <g transform="translate(588.499011 151.842578)scale(0.1 -0.1)">
       <use xlink:href="#DejaVuSans-35"/>
       <use x="63.623047" xlink:href="#DejaVuSans-30"/>
      </g>
     </g>
    </g>
    <g id="xtick_14">
     <g id="line2d_27">
      <g>
       <use style="stroke:#000000;stroke-width:0.8;" x="641.72414" xlink:href="#m7c35e0efd3" y="137.244141"/>
      </g>
     </g>
     <g id="text_30">
      <!-- 100 -->
      <g transform="translate(632.18039 151.842578)scale(0.1 -0.1)">
       <use xlink:href="#DejaVuSans-31"/>
       <use x="63.623047" xlink:href="#DejaVuSans-30"/>
       <use x="127.246094" xlink:href="#DejaVuSans-30"/>
      </g>
     </g>
    </g>
   </g>
   <g id="matplotlib.axis_8">
    <g id="ytick_14">
     <g id="line2d_28">
      <g>
       <use style="stroke:#000000;stroke-width:0.8;" x="542.281641" xlink:href="#mbd4306bb94" y="137.244141"/>
      </g>
     </g>
     <g id="text_31">
      <!-- 0 -->
      <g transform="translate(528.919141 141.043359)scale(0.1 -0.1)">
       <use xlink:href="#DejaVuSans-30"/>
      </g>
     </g>
    </g>
    <g id="ytick_15">
     <g id="line2d_29">
      <g>
       <use style="stroke:#000000;stroke-width:0.8;" x="542.281641" xlink:href="#mbd4306bb94" y="112.921174"/>
      </g>
     </g>
     <g id="text_32">
      <!-- 20 -->
      <g transform="translate(522.556641 116.720393)scale(0.1 -0.1)">
       <use xlink:href="#DejaVuSans-32"/>
       <use x="63.623047" xlink:href="#DejaVuSans-30"/>
      </g>
     </g>
    </g>
    <g id="ytick_16">
     <g id="line2d_30">
      <g>
       <use style="stroke:#000000;stroke-width:0.8;" x="542.281641" xlink:href="#mbd4306bb94" y="88.598208"/>
      </g>
     </g>
     <g id="text_33">
      <!-- 40 -->
      <g transform="translate(522.556641 92.397427)scale(0.1 -0.1)">
       <use xlink:href="#DejaVuSans-34"/>
       <use x="63.623047" xlink:href="#DejaVuSans-30"/>
      </g>
     </g>
    </g>
    <g id="ytick_17">
     <g id="line2d_31">
      <g>
       <use style="stroke:#000000;stroke-width:0.8;" x="542.281641" xlink:href="#mbd4306bb94" y="64.275242"/>
      </g>
     </g>
     <g id="text_34">
      <!-- 60 -->
      <defs>
       <path d="M 33.015625 40.375 
Q 26.375 40.375 22.484375 35.828125 
Q 18.609375 31.296875 18.609375 23.390625 
Q 18.609375 15.53125 22.484375 10.953125 
Q 26.375 6.390625 33.015625 6.390625 
Q 39.65625 6.390625 43.53125 10.953125 
Q 47.40625 15.53125 47.40625 23.390625 
Q 47.40625 31.296875 43.53125 35.828125 
Q 39.65625 40.375 33.015625 40.375 
z
M 52.59375 71.296875 
L 52.59375 62.3125 
Q 48.875 64.0625 45.09375 64.984375 
Q 41.3125 65.921875 37.59375 65.921875 
Q 27.828125 65.921875 22.671875 59.328125 
Q 17.53125 52.734375 16.796875 39.40625 
Q 19.671875 43.65625 24.015625 45.921875 
Q 28.375 48.1875 33.59375 48.1875 
Q 44.578125 48.1875 50.953125 41.515625 
Q 57.328125 34.859375 57.328125 23.390625 
Q 57.328125 12.15625 50.6875 5.359375 
Q 44.046875 -1.421875 33.015625 -1.421875 
Q 20.359375 -1.421875 13.671875 8.265625 
Q 6.984375 17.96875 6.984375 36.375 
Q 6.984375 53.65625 15.1875 63.9375 
Q 23.390625 74.21875 37.203125 74.21875 
Q 40.921875 74.21875 44.703125 73.484375 
Q 48.484375 72.75 52.59375 71.296875 
z
" id="DejaVuSans-36"/>
      </defs>
      <g transform="translate(522.556641 68.074461)scale(0.1 -0.1)">
       <use xlink:href="#DejaVuSans-36"/>
       <use x="63.623047" xlink:href="#DejaVuSans-30"/>
      </g>
     </g>
    </g>
    <g id="ytick_18">
     <g id="line2d_32">
      <g>
       <use style="stroke:#000000;stroke-width:0.8;" x="542.281641" xlink:href="#mbd4306bb94" y="39.952276"/>
      </g>
     </g>
     <g id="text_35">
      <!-- 80 -->
      <defs>
       <path d="M 31.78125 34.625 
Q 24.75 34.625 20.71875 30.859375 
Q 16.703125 27.09375 16.703125 20.515625 
Q 16.703125 13.921875 20.71875 10.15625 
Q 24.75 6.390625 31.78125 6.390625 
Q 38.8125 6.390625 42.859375 10.171875 
Q 46.921875 13.96875 46.921875 20.515625 
Q 46.921875 27.09375 42.890625 30.859375 
Q 38.875 34.625 31.78125 34.625 
z
M 21.921875 38.8125 
Q 15.578125 40.375 12.03125 44.71875 
Q 8.5 49.078125 8.5 55.328125 
Q 8.5 64.0625 14.71875 69.140625 
Q 20.953125 74.21875 31.78125 74.21875 
Q 42.671875 74.21875 48.875 69.140625 
Q 55.078125 64.0625 55.078125 55.328125 
Q 55.078125 49.078125 51.53125 44.71875 
Q 48 40.375 41.703125 38.8125 
Q 48.828125 37.15625 52.796875 32.3125 
Q 56.78125 27.484375 56.78125 20.515625 
Q 56.78125 9.90625 50.3125 4.234375 
Q 43.84375 -1.421875 31.78125 -1.421875 
Q 19.734375 -1.421875 13.25 4.234375 
Q 6.78125 9.90625 6.78125 20.515625 
Q 6.78125 27.484375 10.78125 32.3125 
Q 14.796875 37.15625 21.921875 38.8125 
z
M 18.3125 54.390625 
Q 18.3125 48.734375 21.84375 45.5625 
Q 25.390625 42.390625 31.78125 42.390625 
Q 38.140625 42.390625 41.71875 45.5625 
Q 45.3125 48.734375 45.3125 54.390625 
Q 45.3125 60.0625 41.71875 63.234375 
Q 38.140625 66.40625 31.78125 66.40625 
Q 25.390625 66.40625 21.84375 63.234375 
Q 18.3125 60.0625 18.3125 54.390625 
z
" id="DejaVuSans-38"/>
      </defs>
      <g transform="translate(522.556641 43.751494)scale(0.1 -0.1)">
       <use xlink:href="#DejaVuSans-38"/>
       <use x="63.623047" xlink:href="#DejaVuSans-30"/>
      </g>
     </g>
    </g>
   </g>
   <g id="patch_58">
    <path d="M 542.281641 137.244141 
L 542.281641 22.318125 
" style="fill:none;stroke:#000000;stroke-linecap:square;stroke-linejoin:miter;stroke-width:0.8;"/>
   </g>
   <g id="patch_59">
    <path d="M 668.060937 137.244141 
L 668.060937 22.318125 
" style="fill:none;stroke:#000000;stroke-linecap:square;stroke-linejoin:miter;stroke-width:0.8;"/>
   </g>
   <g id="patch_60">
    <path d="M 542.281641 137.244141 
L 668.060937 137.244141 
" style="fill:none;stroke:#000000;stroke-linecap:square;stroke-linejoin:miter;stroke-width:0.8;"/>
   </g>
   <g id="patch_61">
    <path d="M 542.281641 22.318125 
L 668.060937 22.318125 
" style="fill:none;stroke:#000000;stroke-linecap:square;stroke-linejoin:miter;stroke-width:0.8;"/>
   </g>
   <g id="text_36">
    <!-- Epsilon: 35 -->
    <g transform="translate(572.074727 16.318125)scale(0.12 -0.12)">
     <use xlink:href="#DejaVuSans-45"/>
     <use x="63.183594" xlink:href="#DejaVuSans-70"/>
     <use x="126.660156" xlink:href="#DejaVuSans-73"/>
     <use x="178.759766" xlink:href="#DejaVuSans-69"/>
     <use x="206.542969" xlink:href="#DejaVuSans-6c"/>
     <use x="234.326172" xlink:href="#DejaVuSans-6f"/>
     <use x="295.507812" xlink:href="#DejaVuSans-6e"/>
     <use x="358.886719" xlink:href="#DejaVuSans-3a"/>
     <use x="392.578125" xlink:href="#DejaVuSans-20"/>
     <use x="424.365234" xlink:href="#DejaVuSans-33"/>
     <use x="487.988281" xlink:href="#DejaVuSans-35"/>
    </g>
   </g>
  </g>
  <g id="axes_5">
   <g id="patch_62">
    <path d="M 43.78125 294.766406 
L 169.560547 294.766406 
L 169.560547 179.840391 
L 43.78125 179.840391 
z
" style="fill:#ffffff;"/>
   </g>
   <g id="patch_63">
    <path clip-path="url(#pc783e093b0)" d="M 49.498491 294.766406 
L 60.932972 294.766406 
L 60.932972 185.313058 
L 49.498491 185.313058 
z
" style="fill:#1f77b4;"/>
   </g>
   <g id="patch_64">
    <path clip-path="url(#pc783e093b0)" d="M 60.932972 294.766406 
L 72.367454 294.766406 
L 72.367454 286.658751 
L 60.932972 286.658751 
z
" style="fill:#1f77b4;"/>
   </g>
   <g id="patch_65">
    <path clip-path="url(#pc783e093b0)" d="M 72.367454 294.766406 
L 83.801935 294.766406 
L 83.801935 276.524182 
L 72.367454 276.524182 
z
" style="fill:#1f77b4;"/>
   </g>
   <g id="patch_66">
    <path clip-path="url(#pc783e093b0)" d="M 83.801935 294.766406 
L 95.236417 294.766406 
L 95.236417 280.578009 
L 83.801935 280.578009 
z
" style="fill:#1f77b4;"/>
   </g>
   <g id="patch_67">
    <path clip-path="url(#pc783e093b0)" d="M 95.236417 294.766406 
L 106.670898 294.766406 
L 106.670898 266.389612 
L 95.236417 266.389612 
z
" style="fill:#1f77b4;"/>
   </g>
   <g id="patch_68">
    <path clip-path="url(#pc783e093b0)" d="M 106.670898 294.766406 
L 118.10538 294.766406 
L 118.10538 254.228129 
L 106.670898 254.228129 
z
" style="fill:#1f77b4;"/>
   </g>
   <g id="patch_69">
    <path clip-path="url(#pc783e093b0)" d="M 118.10538 294.766406 
L 129.539862 294.766406 
L 129.539862 266.389612 
L 118.10538 266.389612 
z
" style="fill:#1f77b4;"/>
   </g>
   <g id="patch_70">
    <path clip-path="url(#pc783e093b0)" d="M 129.539862 294.766406 
L 140.974343 294.766406 
L 140.974343 240.039732 
L 129.539862 240.039732 
z
" style="fill:#1f77b4;"/>
   </g>
   <g id="patch_71">
    <path clip-path="url(#pc783e093b0)" d="M 140.974343 294.766406 
L 152.408825 294.766406 
L 152.408825 240.039732 
L 140.974343 240.039732 
z
" style="fill:#1f77b4;"/>
   </g>
   <g id="patch_72">
    <path clip-path="url(#pc783e093b0)" d="M 152.408825 294.766406 
L 163.843306 294.766406 
L 163.843306 250.174301 
L 152.408825 250.174301 
z
" style="fill:#1f77b4;"/>
   </g>
   <g id="matplotlib.axis_9">
    <g id="xtick_15">
     <g id="line2d_33">
      <g>
       <use style="stroke:#000000;stroke-width:0.8;" x="49.498491" xlink:href="#m7c35e0efd3" y="294.766406"/>
      </g>
     </g>
     <g id="text_37">
      <!-- 0 -->
      <g transform="translate(46.317241 309.364844)scale(0.1 -0.1)">
       <use xlink:href="#DejaVuSans-30"/>
      </g>
     </g>
    </g>
    <g id="xtick_16">
     <g id="line2d_34">
      <g>
       <use style="stroke:#000000;stroke-width:0.8;" x="88.391285" xlink:href="#m7c35e0efd3" y="294.766406"/>
      </g>
     </g>
     <g id="text_38">
      <!-- 50 -->
      <g transform="translate(82.028785 309.364844)scale(0.1 -0.1)">
       <use xlink:href="#DejaVuSans-35"/>
       <use x="63.623047" xlink:href="#DejaVuSans-30"/>
      </g>
     </g>
    </g>
    <g id="xtick_17">
     <g id="line2d_35">
      <g>
       <use style="stroke:#000000;stroke-width:0.8;" x="127.284079" xlink:href="#m7c35e0efd3" y="294.766406"/>
      </g>
     </g>
     <g id="text_39">
      <!-- 100 -->
      <g transform="translate(117.740329 309.364844)scale(0.1 -0.1)">
       <use xlink:href="#DejaVuSans-31"/>
       <use x="63.623047" xlink:href="#DejaVuSans-30"/>
       <use x="127.246094" xlink:href="#DejaVuSans-30"/>
      </g>
     </g>
    </g>
    <g id="xtick_18">
     <g id="line2d_36">
      <g>
       <use style="stroke:#000000;stroke-width:0.8;" x="166.176874" xlink:href="#m7c35e0efd3" y="294.766406"/>
      </g>
     </g>
     <g id="text_40">
      <!-- 150 -->
      <g transform="translate(156.633124 309.364844)scale(0.1 -0.1)">
       <use xlink:href="#DejaVuSans-31"/>
       <use x="63.623047" xlink:href="#DejaVuSans-35"/>
       <use x="127.246094" xlink:href="#DejaVuSans-30"/>
      </g>
     </g>
    </g>
   </g>
   <g id="matplotlib.axis_10">
    <g id="ytick_19">
     <g id="line2d_37">
      <g>
       <use style="stroke:#000000;stroke-width:0.8;" x="43.78125" xlink:href="#mbd4306bb94" y="294.766406"/>
      </g>
     </g>
     <g id="text_41">
      <!-- 0 -->
      <g transform="translate(30.41875 298.565625)scale(0.1 -0.1)">
       <use xlink:href="#DejaVuSans-30"/>
      </g>
     </g>
    </g>
    <g id="ytick_20">
     <g id="line2d_38">
      <g>
       <use style="stroke:#000000;stroke-width:0.8;" x="43.78125" xlink:href="#mbd4306bb94" y="254.228129"/>
      </g>
     </g>
     <g id="text_42">
      <!-- 20 -->
      <g transform="translate(24.05625 258.027348)scale(0.1 -0.1)">
       <use xlink:href="#DejaVuSans-32"/>
       <use x="63.623047" xlink:href="#DejaVuSans-30"/>
      </g>
     </g>
    </g>
    <g id="ytick_21">
     <g id="line2d_39">
      <g>
       <use style="stroke:#000000;stroke-width:0.8;" x="43.78125" xlink:href="#mbd4306bb94" y="213.689852"/>
      </g>
     </g>
     <g id="text_43">
      <!-- 40 -->
      <g transform="translate(24.05625 217.489071)scale(0.1 -0.1)">
       <use xlink:href="#DejaVuSans-34"/>
       <use x="63.623047" xlink:href="#DejaVuSans-30"/>
      </g>
     </g>
    </g>
   </g>
   <g id="patch_73">
    <path d="M 43.78125 294.766406 
L 43.78125 179.840391 
" style="fill:none;stroke:#000000;stroke-linecap:square;stroke-linejoin:miter;stroke-width:0.8;"/>
   </g>
   <g id="patch_74">
    <path d="M 169.560547 294.766406 
L 169.560547 179.840391 
" style="fill:none;stroke:#000000;stroke-linecap:square;stroke-linejoin:miter;stroke-width:0.8;"/>
   </g>
   <g id="patch_75">
    <path d="M 43.78125 294.766406 
L 169.560547 294.766406 
" style="fill:none;stroke:#000000;stroke-linecap:square;stroke-linejoin:miter;stroke-width:0.8;"/>
   </g>
   <g id="patch_76">
    <path d="M 43.78125 179.840391 
L 169.560547 179.840391 
" style="fill:none;stroke:#000000;stroke-linecap:square;stroke-linejoin:miter;stroke-width:0.8;"/>
   </g>
   <g id="text_44">
    <!-- Epsilon: 40 -->
    <g transform="translate(73.574336 173.840391)scale(0.12 -0.12)">
     <use xlink:href="#DejaVuSans-45"/>
     <use x="63.183594" xlink:href="#DejaVuSans-70"/>
     <use x="126.660156" xlink:href="#DejaVuSans-73"/>
     <use x="178.759766" xlink:href="#DejaVuSans-69"/>
     <use x="206.542969" xlink:href="#DejaVuSans-6c"/>
     <use x="234.326172" xlink:href="#DejaVuSans-6f"/>
     <use x="295.507812" xlink:href="#DejaVuSans-6e"/>
     <use x="358.886719" xlink:href="#DejaVuSans-3a"/>
     <use x="392.578125" xlink:href="#DejaVuSans-20"/>
     <use x="424.365234" xlink:href="#DejaVuSans-34"/>
     <use x="487.988281" xlink:href="#DejaVuSans-30"/>
    </g>
   </g>
  </g>
  <g id="axes_6">
   <g id="patch_77">
    <path d="M 209.948047 294.766406 
L 335.727344 294.766406 
L 335.727344 179.840391 
L 209.948047 179.840391 
z
" style="fill:#ffffff;"/>
   </g>
   <g id="patch_78">
    <path clip-path="url(#pff8b47719d)" d="M 215.665288 294.766406 
L 227.099769 294.766406 
L 227.099769 230.382084 
L 215.665288 230.382084 
z
" style="fill:#1f77b4;"/>
   </g>
   <g id="patch_79">
    <path clip-path="url(#pff8b47719d)" d="M 227.099769 294.766406 
L 238.534251 294.766406 
L 238.534251 279.743398 
L 227.099769 279.743398 
z
" style="fill:#1f77b4;"/>
   </g>
   <g id="patch_80">
    <path clip-path="url(#pff8b47719d)" d="M 238.534251 294.766406 
L 249.968732 294.766406 
L 249.968732 284.035686 
L 238.534251 284.035686 
z
" style="fill:#1f77b4;"/>
   </g>
   <g id="patch_81">
    <path clip-path="url(#pff8b47719d)" d="M 249.968732 294.766406 
L 261.403214 294.766406 
L 261.403214 279.743398 
L 249.968732 279.743398 
z
" style="fill:#1f77b4;"/>
   </g>
   <g id="patch_82">
    <path clip-path="url(#pff8b47719d)" d="M 261.403214 294.766406 
L 272.837695 294.766406 
L 272.837695 284.035686 
L 261.403214 284.035686 
z
" style="fill:#1f77b4;"/>
   </g>
   <g id="patch_83">
    <path clip-path="url(#pff8b47719d)" d="M 272.837695 294.766406 
L 284.272177 294.766406 
L 284.272177 277.597254 
L 272.837695 277.597254 
z
" style="fill:#1f77b4;"/>
   </g>
   <g id="patch_84">
    <path clip-path="url(#pff8b47719d)" d="M 284.272177 294.766406 
L 295.706658 294.766406 
L 295.706658 264.720389 
L 284.272177 264.720389 
z
" style="fill:#1f77b4;"/>
   </g>
   <g id="patch_85">
    <path clip-path="url(#pff8b47719d)" d="M 295.706658 294.766406 
L 307.14114 294.766406 
L 307.14114 247.551236 
L 295.706658 247.551236 
z
" style="fill:#1f77b4;"/>
   </g>
   <g id="patch_86">
    <path clip-path="url(#pff8b47719d)" d="M 307.14114 294.766406 
L 318.575621 294.766406 
L 318.575621 189.605346 
L 307.14114 189.605346 
z
" style="fill:#1f77b4;"/>
   </g>
   <g id="patch_87">
    <path clip-path="url(#pff8b47719d)" d="M 318.575621 294.766406 
L 330.010103 294.766406 
L 330.010103 185.313058 
L 318.575621 185.313058 
z
" style="fill:#1f77b4;"/>
   </g>
   <g id="matplotlib.axis_11">
    <g id="xtick_19">
     <g id="line2d_40">
      <g>
       <use style="stroke:#000000;stroke-width:0.8;" x="215.665288" xlink:href="#m7c35e0efd3" y="294.766406"/>
      </g>
     </g>
     <g id="text_45">
      <!-- 0 -->
      <g transform="translate(212.484038 309.364844)scale(0.1 -0.1)">
       <use xlink:href="#DejaVuSans-30"/>
      </g>
     </g>
    </g>
    <g id="xtick_20">
     <g id="line2d_41">
      <g>
       <use style="stroke:#000000;stroke-width:0.8;" x="249.900262" xlink:href="#m7c35e0efd3" y="294.766406"/>
      </g>
     </g>
     <g id="text_46">
      <!-- 50 -->
      <g transform="translate(243.537762 309.364844)scale(0.1 -0.1)">
       <use xlink:href="#DejaVuSans-35"/>
       <use x="63.623047" xlink:href="#DejaVuSans-30"/>
      </g>
     </g>
    </g>
    <g id="xtick_21">
     <g id="line2d_42">
      <g>
       <use style="stroke:#000000;stroke-width:0.8;" x="284.135237" xlink:href="#m7c35e0efd3" y="294.766406"/>
      </g>
     </g>
     <g id="text_47">
      <!-- 100 -->
      <g transform="translate(274.591487 309.364844)scale(0.1 -0.1)">
       <use xlink:href="#DejaVuSans-31"/>
       <use x="63.623047" xlink:href="#DejaVuSans-30"/>
       <use x="127.246094" xlink:href="#DejaVuSans-30"/>
      </g>
     </g>
    </g>
    <g id="xtick_22">
     <g id="line2d_43">
      <g>
       <use style="stroke:#000000;stroke-width:0.8;" x="318.370212" xlink:href="#m7c35e0efd3" y="294.766406"/>
      </g>
     </g>
     <g id="text_48">
      <!-- 150 -->
      <g transform="translate(308.826462 309.364844)scale(0.1 -0.1)">
       <use xlink:href="#DejaVuSans-31"/>
       <use x="63.623047" xlink:href="#DejaVuSans-35"/>
       <use x="127.246094" xlink:href="#DejaVuSans-30"/>
      </g>
     </g>
    </g>
   </g>
   <g id="matplotlib.axis_12">
    <g id="ytick_22">
     <g id="line2d_44">
      <g>
       <use style="stroke:#000000;stroke-width:0.8;" x="209.948047" xlink:href="#mbd4306bb94" y="294.766406"/>
      </g>
     </g>
     <g id="text_49">
      <!-- 0 -->
      <g transform="translate(196.585547 298.565625)scale(0.1 -0.1)">
       <use xlink:href="#DejaVuSans-30"/>
      </g>
     </g>
    </g>
    <g id="ytick_23">
     <g id="line2d_45">
      <g>
       <use style="stroke:#000000;stroke-width:0.8;" x="209.948047" xlink:href="#mbd4306bb94" y="251.843525"/>
      </g>
     </g>
     <g id="text_50">
      <!-- 20 -->
      <g transform="translate(190.223047 255.642743)scale(0.1 -0.1)">
       <use xlink:href="#DejaVuSans-32"/>
       <use x="63.623047" xlink:href="#DejaVuSans-30"/>
      </g>
     </g>
    </g>
    <g id="ytick_24">
     <g id="line2d_46">
      <g>
       <use style="stroke:#000000;stroke-width:0.8;" x="209.948047" xlink:href="#mbd4306bb94" y="208.920643"/>
      </g>
     </g>
     <g id="text_51">
      <!-- 40 -->
      <g transform="translate(190.223047 212.719862)scale(0.1 -0.1)">
       <use xlink:href="#DejaVuSans-34"/>
       <use x="63.623047" xlink:href="#DejaVuSans-30"/>
      </g>
     </g>
    </g>
   </g>
   <g id="patch_88">
    <path d="M 209.948047 294.766406 
L 209.948047 179.840391 
" style="fill:none;stroke:#000000;stroke-linecap:square;stroke-linejoin:miter;stroke-width:0.8;"/>
   </g>
   <g id="patch_89">
    <path d="M 335.727344 294.766406 
L 335.727344 179.840391 
" style="fill:none;stroke:#000000;stroke-linecap:square;stroke-linejoin:miter;stroke-width:0.8;"/>
   </g>
   <g id="patch_90">
    <path d="M 209.948047 294.766406 
L 335.727344 294.766406 
" style="fill:none;stroke:#000000;stroke-linecap:square;stroke-linejoin:miter;stroke-width:0.8;"/>
   </g>
   <g id="patch_91">
    <path d="M 209.948047 179.840391 
L 335.727344 179.840391 
" style="fill:none;stroke:#000000;stroke-linecap:square;stroke-linejoin:miter;stroke-width:0.8;"/>
   </g>
   <g id="text_52">
    <!-- Epsilon: 45 -->
    <g transform="translate(239.741133 173.840391)scale(0.12 -0.12)">
     <use xlink:href="#DejaVuSans-45"/>
     <use x="63.183594" xlink:href="#DejaVuSans-70"/>
     <use x="126.660156" xlink:href="#DejaVuSans-73"/>
     <use x="178.759766" xlink:href="#DejaVuSans-69"/>
     <use x="206.542969" xlink:href="#DejaVuSans-6c"/>
     <use x="234.326172" xlink:href="#DejaVuSans-6f"/>
     <use x="295.507812" xlink:href="#DejaVuSans-6e"/>
     <use x="358.886719" xlink:href="#DejaVuSans-3a"/>
     <use x="392.578125" xlink:href="#DejaVuSans-20"/>
     <use x="424.365234" xlink:href="#DejaVuSans-34"/>
     <use x="487.988281" xlink:href="#DejaVuSans-35"/>
    </g>
   </g>
  </g>
  <g id="axes_7">
   <g id="patch_92">
    <path d="M 376.114844 294.766406 
L 501.894141 294.766406 
L 501.894141 179.840391 
L 376.114844 179.840391 
z
" style="fill:#ffffff;"/>
   </g>
   <g id="patch_93">
    <path clip-path="url(#p8af90e328b)" d="M 381.832085 294.766406 
L 393.266566 294.766406 
L 393.266566 277.414046 
L 381.832085 277.414046 
z
" style="fill:#1f77b4;"/>
   </g>
   <g id="patch_94">
    <path clip-path="url(#p8af90e328b)" d="M 393.266566 294.766406 
L 404.701048 294.766406 
L 404.701048 286.757625 
L 393.266566 286.757625 
z
" style="fill:#1f77b4;"/>
   </g>
   <g id="patch_95">
    <path clip-path="url(#p8af90e328b)" d="M 404.701048 294.766406 
L 416.135529 294.766406 
L 416.135529 288.092422 
L 404.701048 288.092422 
z
" style="fill:#1f77b4;"/>
   </g>
   <g id="patch_96">
    <path clip-path="url(#p8af90e328b)" d="M 416.135529 294.766406 
L 427.570011 294.766406 
L 427.570011 292.096812 
L 416.135529 292.096812 
z
" style="fill:#1f77b4;"/>
   </g>
   <g id="patch_97">
    <path clip-path="url(#p8af90e328b)" d="M 427.570011 294.766406 
L 439.004492 294.766406 
L 439.004492 284.088031 
L 427.570011 284.088031 
z
" style="fill:#1f77b4;"/>
   </g>
   <g id="patch_98">
    <path clip-path="url(#p8af90e328b)" d="M 439.004492 294.766406 
L 450.438974 294.766406 
L 450.438974 282.753234 
L 439.004492 282.753234 
z
" style="fill:#1f77b4;"/>
   </g>
   <g id="patch_99">
    <path clip-path="url(#p8af90e328b)" d="M 450.438974 294.766406 
L 461.873455 294.766406 
L 461.873455 285.422828 
L 450.438974 285.422828 
z
" style="fill:#1f77b4;"/>
   </g>
   <g id="patch_100">
    <path clip-path="url(#p8af90e328b)" d="M 461.873455 294.766406 
L 473.307937 294.766406 
L 473.307937 276.079249 
L 461.873455 276.079249 
z
" style="fill:#1f77b4;"/>
   </g>
   <g id="patch_101">
    <path clip-path="url(#p8af90e328b)" d="M 473.307937 294.766406 
L 484.742418 294.766406 
L 484.742418 225.356966 
L 473.307937 225.356966 
z
" style="fill:#1f77b4;"/>
   </g>
   <g id="patch_102">
    <path clip-path="url(#p8af90e328b)" d="M 484.742418 294.766406 
L 496.1769 294.766406 
L 496.1769 185.313058 
L 484.742418 185.313058 
z
" style="fill:#1f77b4;"/>
   </g>
   <g id="matplotlib.axis_13">
    <g id="xtick_23">
     <g id="line2d_47">
      <g>
       <use style="stroke:#000000;stroke-width:0.8;" x="381.832085" xlink:href="#m7c35e0efd3" y="294.766406"/>
      </g>
     </g>
     <g id="text_53">
      <!-- 0 -->
      <g transform="translate(378.650835 309.364844)scale(0.1 -0.1)">
       <use xlink:href="#DejaVuSans-30"/>
      </g>
     </g>
    </g>
    <g id="xtick_24">
     <g id="line2d_48">
      <g>
       <use style="stroke:#000000;stroke-width:0.8;" x="444.658906" xlink:href="#m7c35e0efd3" y="294.766406"/>
      </g>
     </g>
     <g id="text_54">
      <!-- 100 -->
      <g transform="translate(435.115156 309.364844)scale(0.1 -0.1)">
       <use xlink:href="#DejaVuSans-31"/>
       <use x="63.623047" xlink:href="#DejaVuSans-30"/>
       <use x="127.246094" xlink:href="#DejaVuSans-30"/>
      </g>
     </g>
    </g>
   </g>
   <g id="matplotlib.axis_14">
    <g id="ytick_25">
     <g id="line2d_49">
      <g>
       <use style="stroke:#000000;stroke-width:0.8;" x="376.114844" xlink:href="#mbd4306bb94" y="294.766406"/>
      </g>
     </g>
     <g id="text_55">
      <!-- 0 -->
      <g transform="translate(362.752344 298.565625)scale(0.1 -0.1)">
       <use xlink:href="#DejaVuSans-30"/>
      </g>
     </g>
    </g>
    <g id="ytick_26">
     <g id="line2d_50">
      <g>
       <use style="stroke:#000000;stroke-width:0.8;" x="376.114844" xlink:href="#mbd4306bb94" y="268.070468"/>
      </g>
     </g>
     <g id="text_56">
      <!-- 20 -->
      <g transform="translate(356.389844 271.869686)scale(0.1 -0.1)">
       <use xlink:href="#DejaVuSans-32"/>
       <use x="63.623047" xlink:href="#DejaVuSans-30"/>
      </g>
     </g>
    </g>
    <g id="ytick_27">
     <g id="line2d_51">
      <g>
       <use style="stroke:#000000;stroke-width:0.8;" x="376.114844" xlink:href="#mbd4306bb94" y="241.374529"/>
      </g>
     </g>
     <g id="text_57">
      <!-- 40 -->
      <g transform="translate(356.389844 245.173748)scale(0.1 -0.1)">
       <use xlink:href="#DejaVuSans-34"/>
       <use x="63.623047" xlink:href="#DejaVuSans-30"/>
      </g>
     </g>
    </g>
    <g id="ytick_28">
     <g id="line2d_52">
      <g>
       <use style="stroke:#000000;stroke-width:0.8;" x="376.114844" xlink:href="#mbd4306bb94" y="214.67859"/>
      </g>
     </g>
     <g id="text_58">
      <!-- 60 -->
      <g transform="translate(356.389844 218.477809)scale(0.1 -0.1)">
       <use xlink:href="#DejaVuSans-36"/>
       <use x="63.623047" xlink:href="#DejaVuSans-30"/>
      </g>
     </g>
    </g>
    <g id="ytick_29">
     <g id="line2d_53">
      <g>
       <use style="stroke:#000000;stroke-width:0.8;" x="376.114844" xlink:href="#mbd4306bb94" y="187.982652"/>
      </g>
     </g>
     <g id="text_59">
      <!-- 80 -->
      <g transform="translate(356.389844 191.781871)scale(0.1 -0.1)">
       <use xlink:href="#DejaVuSans-38"/>
       <use x="63.623047" xlink:href="#DejaVuSans-30"/>
      </g>
     </g>
    </g>
   </g>
   <g id="patch_103">
    <path d="M 376.114844 294.766406 
L 376.114844 179.840391 
" style="fill:none;stroke:#000000;stroke-linecap:square;stroke-linejoin:miter;stroke-width:0.8;"/>
   </g>
   <g id="patch_104">
    <path d="M 501.894141 294.766406 
L 501.894141 179.840391 
" style="fill:none;stroke:#000000;stroke-linecap:square;stroke-linejoin:miter;stroke-width:0.8;"/>
   </g>
   <g id="patch_105">
    <path d="M 376.114844 294.766406 
L 501.894141 294.766406 
" style="fill:none;stroke:#000000;stroke-linecap:square;stroke-linejoin:miter;stroke-width:0.8;"/>
   </g>
   <g id="patch_106">
    <path d="M 376.114844 179.840391 
L 501.894141 179.840391 
" style="fill:none;stroke:#000000;stroke-linecap:square;stroke-linejoin:miter;stroke-width:0.8;"/>
   </g>
   <g id="text_60">
    <!-- Epsilon: 50 -->
    <g transform="translate(405.90793 173.840391)scale(0.12 -0.12)">
     <use xlink:href="#DejaVuSans-45"/>
     <use x="63.183594" xlink:href="#DejaVuSans-70"/>
     <use x="126.660156" xlink:href="#DejaVuSans-73"/>
     <use x="178.759766" xlink:href="#DejaVuSans-69"/>
     <use x="206.542969" xlink:href="#DejaVuSans-6c"/>
     <use x="234.326172" xlink:href="#DejaVuSans-6f"/>
     <use x="295.507812" xlink:href="#DejaVuSans-6e"/>
     <use x="358.886719" xlink:href="#DejaVuSans-3a"/>
     <use x="392.578125" xlink:href="#DejaVuSans-20"/>
     <use x="424.365234" xlink:href="#DejaVuSans-35"/>
     <use x="487.988281" xlink:href="#DejaVuSans-30"/>
    </g>
   </g>
  </g>
  <g id="axes_8">
   <g id="patch_107">
    <path d="M 542.281641 294.766406 
L 668.060937 294.766406 
L 668.060937 179.840391 
L 542.281641 179.840391 
z
" style="fill:#ffffff;"/>
   </g>
   <g id="patch_108">
    <path clip-path="url(#pfa096c82c0)" d="M 547.998881 294.766406 
L 559.433363 294.766406 
L 559.433363 288.827077 
L 547.998881 288.827077 
z
" style="fill:#1f77b4;"/>
   </g>
   <g id="patch_109">
    <path clip-path="url(#pfa096c82c0)" d="M 559.433363 294.766406 
L 570.867844 294.766406 
L 570.867844 293.069455 
L 559.433363 293.069455 
z
" style="fill:#1f77b4;"/>
   </g>
   <g id="patch_110">
    <path clip-path="url(#pfa096c82c0)" d="M 570.867844 294.766406 
L 582.302326 294.766406 
L 582.302326 293.917931 
L 570.867844 293.917931 
z
" style="fill:#1f77b4;"/>
   </g>
   <g id="patch_111">
    <path clip-path="url(#pfa096c82c0)" d="M 582.302326 294.766406 
L 593.736808 294.766406 
L 593.736808 293.917931 
L 582.302326 293.917931 
z
" style="fill:#1f77b4;"/>
   </g>
   <g id="patch_112">
    <path clip-path="url(#pfa096c82c0)" d="M 593.736808 294.766406 
L 605.171289 294.766406 
L 605.171289 290.524028 
L 593.736808 290.524028 
z
" style="fill:#1f77b4;"/>
   </g>
   <g id="patch_113">
    <path clip-path="url(#pfa096c82c0)" d="M 605.171289 294.766406 
L 616.605771 294.766406 
L 616.605771 290.524028 
L 605.171289 290.524028 
z
" style="fill:#1f77b4;"/>
   </g>
   <g id="patch_114">
    <path clip-path="url(#pfa096c82c0)" d="M 616.605771 294.766406 
L 628.040252 294.766406 
L 628.040252 287.978602 
L 616.605771 287.978602 
z
" style="fill:#1f77b4;"/>
   </g>
   <g id="patch_115">
    <path clip-path="url(#pfa096c82c0)" d="M 628.040252 294.766406 
L 639.474734 294.766406 
L 639.474734 287.978602 
L 628.040252 287.978602 
z
" style="fill:#1f77b4;"/>
   </g>
   <g id="patch_116">
    <path clip-path="url(#pfa096c82c0)" d="M 639.474734 294.766406 
L 650.909215 294.766406 
L 650.909215 267.615188 
L 639.474734 267.615188 
z
" style="fill:#1f77b4;"/>
   </g>
   <g id="patch_117">
    <path clip-path="url(#pfa096c82c0)" d="M 650.909215 294.766406 
L 662.343697 294.766406 
L 662.343697 185.313058 
L 650.909215 185.313058 
z
" style="fill:#1f77b4;"/>
   </g>
   <g id="matplotlib.axis_15">
    <g id="xtick_25">
     <g id="line2d_54">
      <g>
       <use style="stroke:#000000;stroke-width:0.8;" x="547.998881" xlink:href="#m7c35e0efd3" y="294.766406"/>
      </g>
     </g>
     <g id="text_61">
      <!-- 0 -->
      <g transform="translate(544.817631 309.364844)scale(0.1 -0.1)">
       <use xlink:href="#DejaVuSans-30"/>
      </g>
     </g>
    </g>
    <g id="xtick_26">
     <g id="line2d_55">
      <g>
       <use style="stroke:#000000;stroke-width:0.8;" x="608.498784" xlink:href="#m7c35e0efd3" y="294.766406"/>
      </g>
     </g>
     <g id="text_62">
      <!-- 100 -->
      <g transform="translate(598.955034 309.364844)scale(0.1 -0.1)">
       <use xlink:href="#DejaVuSans-31"/>
       <use x="63.623047" xlink:href="#DejaVuSans-30"/>
       <use x="127.246094" xlink:href="#DejaVuSans-30"/>
      </g>
     </g>
    </g>
   </g>
   <g id="matplotlib.axis_16">
    <g id="ytick_30">
     <g id="line2d_56">
      <g>
       <use style="stroke:#000000;stroke-width:0.8;" x="542.281641" xlink:href="#mbd4306bb94" y="294.766406"/>
      </g>
     </g>
     <g id="text_63">
      <!-- 0 -->
      <g transform="translate(528.919141 298.565625)scale(0.1 -0.1)">
       <use xlink:href="#DejaVuSans-30"/>
      </g>
     </g>
    </g>
    <g id="ytick_31">
     <g id="line2d_57">
      <g>
       <use style="stroke:#000000;stroke-width:0.8;" x="542.281641" xlink:href="#mbd4306bb94" y="252.342628"/>
      </g>
     </g>
     <g id="text_64">
      <!-- 50 -->
      <g transform="translate(522.556641 256.141847)scale(0.1 -0.1)">
       <use xlink:href="#DejaVuSans-35"/>
       <use x="63.623047" xlink:href="#DejaVuSans-30"/>
      </g>
     </g>
    </g>
    <g id="ytick_32">
     <g id="line2d_58">
      <g>
       <use style="stroke:#000000;stroke-width:0.8;" x="542.281641" xlink:href="#mbd4306bb94" y="209.918849"/>
      </g>
     </g>
     <g id="text_65">
      <!-- 100 -->
      <g transform="translate(516.194141 213.718068)scale(0.1 -0.1)">
       <use xlink:href="#DejaVuSans-31"/>
       <use x="63.623047" xlink:href="#DejaVuSans-30"/>
       <use x="127.246094" xlink:href="#DejaVuSans-30"/>
      </g>
     </g>
    </g>
   </g>
   <g id="patch_118">
    <path d="M 542.281641 294.766406 
L 542.281641 179.840391 
" style="fill:none;stroke:#000000;stroke-linecap:square;stroke-linejoin:miter;stroke-width:0.8;"/>
   </g>
   <g id="patch_119">
    <path d="M 668.060937 294.766406 
L 668.060937 179.840391 
" style="fill:none;stroke:#000000;stroke-linecap:square;stroke-linejoin:miter;stroke-width:0.8;"/>
   </g>
   <g id="patch_120">
    <path d="M 542.281641 294.766406 
L 668.060937 294.766406 
" style="fill:none;stroke:#000000;stroke-linecap:square;stroke-linejoin:miter;stroke-width:0.8;"/>
   </g>
   <g id="patch_121">
    <path d="M 542.281641 179.840391 
L 668.060937 179.840391 
" style="fill:none;stroke:#000000;stroke-linecap:square;stroke-linejoin:miter;stroke-width:0.8;"/>
   </g>
   <g id="text_66">
    <!-- Epsilon: 55 -->
    <g transform="translate(572.074727 173.840391)scale(0.12 -0.12)">
     <use xlink:href="#DejaVuSans-45"/>
     <use x="63.183594" xlink:href="#DejaVuSans-70"/>
     <use x="126.660156" xlink:href="#DejaVuSans-73"/>
     <use x="178.759766" xlink:href="#DejaVuSans-69"/>
     <use x="206.542969" xlink:href="#DejaVuSans-6c"/>
     <use x="234.326172" xlink:href="#DejaVuSans-6f"/>
     <use x="295.507812" xlink:href="#DejaVuSans-6e"/>
     <use x="358.886719" xlink:href="#DejaVuSans-3a"/>
     <use x="392.578125" xlink:href="#DejaVuSans-20"/>
     <use x="424.365234" xlink:href="#DejaVuSans-35"/>
     <use x="487.988281" xlink:href="#DejaVuSans-35"/>
    </g>
   </g>
  </g>
  <g id="axes_9">
   <g id="matplotlib.axis_17">
    <g id="xtick_27">
     <g id="text_67">
      <!-- 0.0 -->
      <defs>
       <path d="M 10.6875 12.40625 
L 21 12.40625 
L 21 0 
L 10.6875 0 
z
" id="DejaVuSans-2e"/>
      </defs>
      <g transform="translate(35.829688 309.364844)scale(0.1 -0.1)">
       <use xlink:href="#DejaVuSans-30"/>
       <use x="63.623047" xlink:href="#DejaVuSans-2e"/>
       <use x="95.410156" xlink:href="#DejaVuSans-30"/>
      </g>
     </g>
    </g>
    <g id="xtick_28">
     <g id="text_68">
      <!-- 0.2 -->
      <g transform="translate(160.685625 309.364844)scale(0.1 -0.1)">
       <use xlink:href="#DejaVuSans-30"/>
       <use x="63.623047" xlink:href="#DejaVuSans-2e"/>
       <use x="95.410156" xlink:href="#DejaVuSans-32"/>
      </g>
     </g>
    </g>
    <g id="xtick_29">
     <g id="text_69">
      <!-- 0.4 -->
      <g transform="translate(285.541562 309.364844)scale(0.1 -0.1)">
       <use xlink:href="#DejaVuSans-30"/>
       <use x="63.623047" xlink:href="#DejaVuSans-2e"/>
       <use x="95.410156" xlink:href="#DejaVuSans-34"/>
      </g>
     </g>
    </g>
    <g id="xtick_30">
     <g id="text_70">
      <!-- 0.6 -->
      <g transform="translate(410.3975 309.364844)scale(0.1 -0.1)">
       <use xlink:href="#DejaVuSans-30"/>
       <use x="63.623047" xlink:href="#DejaVuSans-2e"/>
       <use x="95.410156" xlink:href="#DejaVuSans-36"/>
      </g>
     </g>
    </g>
    <g id="xtick_31">
     <g id="text_71">
      <!-- 0.8 -->
      <g transform="translate(535.253437 309.364844)scale(0.1 -0.1)">
       <use xlink:href="#DejaVuSans-30"/>
       <use x="63.623047" xlink:href="#DejaVuSans-2e"/>
       <use x="95.410156" xlink:href="#DejaVuSans-38"/>
      </g>
     </g>
    </g>
    <g id="xtick_32">
     <g id="text_72">
      <!-- 1.0 -->
      <g transform="translate(660.109375 309.364844)scale(0.1 -0.1)">
       <use xlink:href="#DejaVuSans-31"/>
       <use x="63.623047" xlink:href="#DejaVuSans-2e"/>
       <use x="95.410156" xlink:href="#DejaVuSans-30"/>
      </g>
     </g>
    </g>
    <g id="text_73">
     <!-- Number of neighbors -->
     <defs>
      <path d="M 9.8125 72.90625 
L 23.09375 72.90625 
L 55.421875 11.921875 
L 55.421875 72.90625 
L 64.984375 72.90625 
L 64.984375 0 
L 51.703125 0 
L 19.390625 60.984375 
L 19.390625 0 
L 9.8125 0 
z
" id="DejaVuSans-4e"/>
      <path d="M 8.5 21.578125 
L 8.5 54.6875 
L 17.484375 54.6875 
L 17.484375 21.921875 
Q 17.484375 14.15625 20.5 10.265625 
Q 23.53125 6.390625 29.59375 6.390625 
Q 36.859375 6.390625 41.078125 11.03125 
Q 45.3125 15.671875 45.3125 23.6875 
L 45.3125 54.6875 
L 54.296875 54.6875 
L 54.296875 0 
L 45.3125 0 
L 45.3125 8.40625 
Q 42.046875 3.421875 37.71875 1 
Q 33.40625 -1.421875 27.6875 -1.421875 
Q 18.265625 -1.421875 13.375 4.4375 
Q 8.5 10.296875 8.5 21.578125 
z
M 31.109375 56 
z
" id="DejaVuSans-75"/>
      <path d="M 52 44.1875 
Q 55.375 50.25 60.0625 53.125 
Q 64.75 56 71.09375 56 
Q 79.640625 56 84.28125 50.015625 
Q 88.921875 44.046875 88.921875 33.015625 
L 88.921875 0 
L 79.890625 0 
L 79.890625 32.71875 
Q 79.890625 40.578125 77.09375 44.375 
Q 74.3125 48.1875 68.609375 48.1875 
Q 61.625 48.1875 57.5625 43.546875 
Q 53.515625 38.921875 53.515625 30.90625 
L 53.515625 0 
L 44.484375 0 
L 44.484375 32.71875 
Q 44.484375 40.625 41.703125 44.40625 
Q 38.921875 48.1875 33.109375 48.1875 
Q 26.21875 48.1875 22.15625 43.53125 
Q 18.109375 38.875 18.109375 30.90625 
L 18.109375 0 
L 9.078125 0 
L 9.078125 54.6875 
L 18.109375 54.6875 
L 18.109375 46.1875 
Q 21.1875 51.21875 25.484375 53.609375 
Q 29.78125 56 35.6875 56 
Q 41.65625 56 45.828125 52.96875 
Q 50 49.953125 52 44.1875 
z
" id="DejaVuSans-6d"/>
      <path d="M 48.6875 27.296875 
Q 48.6875 37.203125 44.609375 42.84375 
Q 40.53125 48.484375 33.40625 48.484375 
Q 26.265625 48.484375 22.1875 42.84375 
Q 18.109375 37.203125 18.109375 27.296875 
Q 18.109375 17.390625 22.1875 11.75 
Q 26.265625 6.109375 33.40625 6.109375 
Q 40.53125 6.109375 44.609375 11.75 
Q 48.6875 17.390625 48.6875 27.296875 
z
M 18.109375 46.390625 
Q 20.953125 51.265625 25.265625 53.625 
Q 29.59375 56 35.59375 56 
Q 45.5625 56 51.78125 48.09375 
Q 58.015625 40.1875 58.015625 27.296875 
Q 58.015625 14.40625 51.78125 6.484375 
Q 45.5625 -1.421875 35.59375 -1.421875 
Q 29.59375 -1.421875 25.265625 0.953125 
Q 20.953125 3.328125 18.109375 8.203125 
L 18.109375 0 
L 9.078125 0 
L 9.078125 75.984375 
L 18.109375 75.984375 
z
" id="DejaVuSans-62"/>
      <path d="M 56.203125 29.59375 
L 56.203125 25.203125 
L 14.890625 25.203125 
Q 15.484375 15.921875 20.484375 11.0625 
Q 25.484375 6.203125 34.421875 6.203125 
Q 39.59375 6.203125 44.453125 7.46875 
Q 49.3125 8.734375 54.109375 11.28125 
L 54.109375 2.78125 
Q 49.265625 0.734375 44.1875 -0.34375 
Q 39.109375 -1.421875 33.890625 -1.421875 
Q 20.796875 -1.421875 13.15625 6.1875 
Q 5.515625 13.8125 5.515625 26.8125 
Q 5.515625 40.234375 12.765625 48.109375 
Q 20.015625 56 32.328125 56 
Q 43.359375 56 49.78125 48.890625 
Q 56.203125 41.796875 56.203125 29.59375 
z
M 47.21875 32.234375 
Q 47.125 39.59375 43.09375 43.984375 
Q 39.0625 48.390625 32.421875 48.390625 
Q 24.90625 48.390625 20.390625 44.140625 
Q 15.875 39.890625 15.1875 32.171875 
z
" id="DejaVuSans-65"/>
      <path d="M 41.109375 46.296875 
Q 39.59375 47.171875 37.8125 47.578125 
Q 36.03125 48 33.890625 48 
Q 26.265625 48 22.1875 43.046875 
Q 18.109375 38.09375 18.109375 28.8125 
L 18.109375 0 
L 9.078125 0 
L 9.078125 54.6875 
L 18.109375 54.6875 
L 18.109375 46.1875 
Q 20.953125 51.171875 25.484375 53.578125 
Q 30.03125 56 36.53125 56 
Q 37.453125 56 38.578125 55.875 
Q 39.703125 55.765625 41.0625 55.515625 
z
" id="DejaVuSans-72"/>
      <path d="M 37.109375 75.984375 
L 37.109375 68.5 
L 28.515625 68.5 
Q 23.6875 68.5 21.796875 66.546875 
Q 19.921875 64.59375 19.921875 59.515625 
L 19.921875 54.6875 
L 34.71875 54.6875 
L 34.71875 47.703125 
L 19.921875 47.703125 
L 19.921875 0 
L 10.890625 0 
L 10.890625 47.703125 
L 2.296875 47.703125 
L 2.296875 54.6875 
L 10.890625 54.6875 
L 10.890625 58.5 
Q 10.890625 67.625 15.140625 71.796875 
Q 19.390625 75.984375 28.609375 75.984375 
z
" id="DejaVuSans-66"/>
      <path d="M 45.40625 27.984375 
Q 45.40625 37.75 41.375 43.109375 
Q 37.359375 48.484375 30.078125 48.484375 
Q 22.859375 48.484375 18.828125 43.109375 
Q 14.796875 37.75 14.796875 27.984375 
Q 14.796875 18.265625 18.828125 12.890625 
Q 22.859375 7.515625 30.078125 7.515625 
Q 37.359375 7.515625 41.375 12.890625 
Q 45.40625 18.265625 45.40625 27.984375 
z
M 54.390625 6.78125 
Q 54.390625 -7.171875 48.1875 -13.984375 
Q 42 -20.796875 29.203125 -20.796875 
Q 24.46875 -20.796875 20.265625 -20.09375 
Q 16.0625 -19.390625 12.109375 -17.921875 
L 12.109375 -9.1875 
Q 16.0625 -11.328125 19.921875 -12.34375 
Q 23.78125 -13.375 27.78125 -13.375 
Q 36.625 -13.375 41.015625 -8.765625 
Q 45.40625 -4.15625 45.40625 5.171875 
L 45.40625 9.625 
Q 42.625 4.78125 38.28125 2.390625 
Q 33.9375 0 27.875 0 
Q 17.828125 0 11.671875 7.65625 
Q 5.515625 15.328125 5.515625 27.984375 
Q 5.515625 40.671875 11.671875 48.328125 
Q 17.828125 56 27.875 56 
Q 33.9375 56 38.28125 53.609375 
Q 42.625 51.21875 45.40625 46.390625 
L 45.40625 54.6875 
L 54.390625 54.6875 
z
" id="DejaVuSans-67"/>
      <path d="M 54.890625 33.015625 
L 54.890625 0 
L 45.90625 0 
L 45.90625 32.71875 
Q 45.90625 40.484375 42.875 44.328125 
Q 39.84375 48.1875 33.796875 48.1875 
Q 26.515625 48.1875 22.3125 43.546875 
Q 18.109375 38.921875 18.109375 30.90625 
L 18.109375 0 
L 9.078125 0 
L 9.078125 75.984375 
L 18.109375 75.984375 
L 18.109375 46.1875 
Q 21.34375 51.125 25.703125 53.5625 
Q 30.078125 56 35.796875 56 
Q 45.21875 56 50.046875 50.171875 
Q 54.890625 44.34375 54.890625 33.015625 
z
" id="DejaVuSans-68"/>
     </defs>
     <g transform="translate(302.966406 323.042969)scale(0.1 -0.1)">
      <use xlink:href="#DejaVuSans-4e"/>
      <use x="74.804688" xlink:href="#DejaVuSans-75"/>
      <use x="138.183594" xlink:href="#DejaVuSans-6d"/>
      <use x="235.595703" xlink:href="#DejaVuSans-62"/>
      <use x="299.072266" xlink:href="#DejaVuSans-65"/>
      <use x="360.595703" xlink:href="#DejaVuSans-72"/>
      <use x="401.708984" xlink:href="#DejaVuSans-20"/>
      <use x="433.496094" xlink:href="#DejaVuSans-6f"/>
      <use x="494.677734" xlink:href="#DejaVuSans-66"/>
      <use x="529.882812" xlink:href="#DejaVuSans-20"/>
      <use x="561.669922" xlink:href="#DejaVuSans-6e"/>
      <use x="625.048828" xlink:href="#DejaVuSans-65"/>
      <use x="686.572266" xlink:href="#DejaVuSans-69"/>
      <use x="714.355469" xlink:href="#DejaVuSans-67"/>
      <use x="777.832031" xlink:href="#DejaVuSans-68"/>
      <use x="841.210938" xlink:href="#DejaVuSans-62"/>
      <use x="904.6875" xlink:href="#DejaVuSans-6f"/>
      <use x="965.869141" xlink:href="#DejaVuSans-72"/>
      <use x="1006.982422" xlink:href="#DejaVuSans-73"/>
     </g>
    </g>
   </g>
   <g id="matplotlib.axis_18">
    <g id="ytick_33">
     <g id="text_74">
      <!-- 0.0 -->
      <g transform="translate(20.878125 298.565625)scale(0.1 -0.1)">
       <use xlink:href="#DejaVuSans-30"/>
       <use x="63.623047" xlink:href="#DejaVuSans-2e"/>
       <use x="95.410156" xlink:href="#DejaVuSans-30"/>
      </g>
     </g>
    </g>
    <g id="ytick_34">
     <g id="text_75">
      <!-- 0.2 -->
      <g transform="translate(20.878125 244.075969)scale(0.1 -0.1)">
       <use xlink:href="#DejaVuSans-30"/>
       <use x="63.623047" xlink:href="#DejaVuSans-2e"/>
       <use x="95.410156" xlink:href="#DejaVuSans-32"/>
      </g>
     </g>
    </g>
    <g id="ytick_35">
     <g id="text_76">
      <!-- 0.4 -->
      <g transform="translate(20.878125 189.586312)scale(0.1 -0.1)">
       <use xlink:href="#DejaVuSans-30"/>
       <use x="63.623047" xlink:href="#DejaVuSans-2e"/>
       <use x="95.410156" xlink:href="#DejaVuSans-34"/>
      </g>
     </g>
    </g>
    <g id="ytick_36">
     <g id="text_77">
      <!-- 0.6 -->
      <g transform="translate(20.878125 135.096656)scale(0.1 -0.1)">
       <use xlink:href="#DejaVuSans-30"/>
       <use x="63.623047" xlink:href="#DejaVuSans-2e"/>
       <use x="95.410156" xlink:href="#DejaVuSans-36"/>
      </g>
     </g>
    </g>
    <g id="ytick_37">
     <g id="text_78">
      <!-- 0.8 -->
      <g transform="translate(20.878125 80.607)scale(0.1 -0.1)">
       <use xlink:href="#DejaVuSans-30"/>
       <use x="63.623047" xlink:href="#DejaVuSans-2e"/>
       <use x="95.410156" xlink:href="#DejaVuSans-38"/>
      </g>
     </g>
    </g>
    <g id="ytick_38">
     <g id="text_79">
      <!-- 1.0 -->
      <g transform="translate(20.878125 26.117344)scale(0.1 -0.1)">
       <use xlink:href="#DejaVuSans-31"/>
       <use x="63.623047" xlink:href="#DejaVuSans-2e"/>
       <use x="95.410156" xlink:href="#DejaVuSans-30"/>
      </g>
     </g>
    </g>
    <g id="text_80">
     <!-- Number of samples -->
     <defs>
      <path d="M 34.28125 27.484375 
Q 23.390625 27.484375 19.1875 25 
Q 14.984375 22.515625 14.984375 16.5 
Q 14.984375 11.71875 18.140625 8.90625 
Q 21.296875 6.109375 26.703125 6.109375 
Q 34.1875 6.109375 38.703125 11.40625 
Q 43.21875 16.703125 43.21875 25.484375 
L 43.21875 27.484375 
z
M 52.203125 31.203125 
L 52.203125 0 
L 43.21875 0 
L 43.21875 8.296875 
Q 40.140625 3.328125 35.546875 0.953125 
Q 30.953125 -1.421875 24.3125 -1.421875 
Q 15.921875 -1.421875 10.953125 3.296875 
Q 6 8.015625 6 15.921875 
Q 6 25.140625 12.171875 29.828125 
Q 18.359375 34.515625 30.609375 34.515625 
L 43.21875 34.515625 
L 43.21875 35.40625 
Q 43.21875 41.609375 39.140625 45 
Q 35.0625 48.390625 27.6875 48.390625 
Q 23 48.390625 18.546875 47.265625 
Q 14.109375 46.140625 10.015625 43.890625 
L 10.015625 52.203125 
Q 14.9375 54.109375 19.578125 55.046875 
Q 24.21875 56 28.609375 56 
Q 40.484375 56 46.34375 49.84375 
Q 52.203125 43.703125 52.203125 31.203125 
z
" id="DejaVuSans-61"/>
     </defs>
     <g transform="translate(14.798438 207.409453)rotate(-90)scale(0.1 -0.1)">
      <use xlink:href="#DejaVuSans-4e"/>
      <use x="74.804688" xlink:href="#DejaVuSans-75"/>
      <use x="138.183594" xlink:href="#DejaVuSans-6d"/>
      <use x="235.595703" xlink:href="#DejaVuSans-62"/>
      <use x="299.072266" xlink:href="#DejaVuSans-65"/>
      <use x="360.595703" xlink:href="#DejaVuSans-72"/>
      <use x="401.708984" xlink:href="#DejaVuSans-20"/>
      <use x="433.496094" xlink:href="#DejaVuSans-6f"/>
      <use x="494.677734" xlink:href="#DejaVuSans-66"/>
      <use x="529.882812" xlink:href="#DejaVuSans-20"/>
      <use x="561.669922" xlink:href="#DejaVuSans-73"/>
      <use x="613.769531" xlink:href="#DejaVuSans-61"/>
      <use x="675.048828" xlink:href="#DejaVuSans-6d"/>
      <use x="772.460938" xlink:href="#DejaVuSans-70"/>
      <use x="835.9375" xlink:href="#DejaVuSans-6c"/>
      <use x="863.720703" xlink:href="#DejaVuSans-65"/>
      <use x="925.244141" xlink:href="#DejaVuSans-73"/>
     </g>
    </g>
   </g>
  </g>
 </g>
 <defs>
  <clipPath id="p63df22bb2b">
   <rect height="114.926016" width="125.779297" x="43.78125" y="22.318125"/>
  </clipPath>
  <clipPath id="pb2efb4ddc8">
   <rect height="114.926016" width="125.779297" x="209.948047" y="22.318125"/>
  </clipPath>
  <clipPath id="p0081a75dd5">
   <rect height="114.926016" width="125.779297" x="376.114844" y="22.318125"/>
  </clipPath>
  <clipPath id="p77449aa10a">
   <rect height="114.926016" width="125.779297" x="542.281641" y="22.318125"/>
  </clipPath>
  <clipPath id="pc783e093b0">
   <rect height="114.926016" width="125.779297" x="43.78125" y="179.840391"/>
  </clipPath>
  <clipPath id="pff8b47719d">
   <rect height="114.926016" width="125.779297" x="209.948047" y="179.840391"/>
  </clipPath>
  <clipPath id="p8af90e328b">
   <rect height="114.926016" width="125.779297" x="376.114844" y="179.840391"/>
  </clipPath>
  <clipPath id="pfa096c82c0">
   <rect height="114.926016" width="125.779297" x="542.281641" y="179.840391"/>
  </clipPath>
 </defs>
</svg>
